<?xml version="1.0" encoding="UTF-8"?>
<svg version="1.1" viewBox="0 0 900 900" xmlns="http://www.w3.org/2000/svg" fill="#cdb684">
 <g transform="translate(0 -152.36)">
  <g transform="matrix(1.6105 0 0 1.6105 -274.71 -367.72)">
   <path d="m436.11 847.95c-11.95-1.5586-23.979-3.3062-35.48-7.0126-3.9132-1.5488-7.853-3.0941-11.964-3.9952-6.4051-2.5393-12.547-5.6989-18.896-8.3765-3.4347-1.2288-5.6222-4.2231-8.6904-5.9864-7.6007-3.2802-13.553-9.2294-19.955-14.301-3.9724-3.4695-8.1921-6.7154-11.76-10.611-5.1569-6.7655-11.825-12.223-16.949-19.03-8.3201-10.831-13.851-23.428-19.871-35.601-2.0137-4.5722-4.688-8.8925-6.0907-13.706-1.3112-4.8376-0.79776-9.9699-2.4105-14.753-1.0648-3.2115-2.3165-6.3835-2.5844-9.7959-1.6348-14.383-1.4212-28.926-0.54126-43.354 0.41208-7.5249 1.6741-14.976 3.7602-22.216 3.2701-11.817 6.9604-23.707 13.225-34.323 5.2451-7.9029 9.3224-16.539 15.099-24.098 5.5574-7.4951 11.212-15.028 18.021-21.445 9.1784-7.9476 18.857-15.359 29.084-21.91 16.835-9.3652 34.529-18.069 53.742-21.106 3.7664-0.89673 8.2345-0.33822 11.296-3.0813 2.4907-3.0733 1.4372-7.3583 1.0862-10.967-0.85588-6.6855-2.9976-13.909-8.9231-17.85-4.0169-2.636-8.5093-4.5556-12.121-7.8029-9.3194-7.8076-15.802-18.49-20.526-29.568-3.7222-9.4454-3.7183-19.792-3.7387-29.794-0.10911-4.0833 1.4533-7.9203 3.5752-11.329 4.7621-8.557 7.8307-18.052 13.561-26.055 4.9957-6.0828 11.721-10.489 18.526-14.309 5.3633-2.3986 10.602-5.1806 16.235-6.9022 11.987-3.1884 24.919-3.0432 36.742 0.79764 10.849 2.9982 20.955 8.4831 29.339 15.998 5.422 4.1846 8.7372 10.323 12.133 16.125 1.638 3.2464 3.8853 6.4563 3.9468 10.213 1.3572 5.2004 5.4253 9.4218 5.7073 14.964 0.98998 9.1953 0.15537 18.627-2.4485 27.501-0.64431 3.4002-3.389 5.7321-4.4894 8.8795-0.46009 4.8988-3.5328 9.0288-6.1047 13.059-5.157 7.8795-12.667 13.884-20.679 18.666-2.9651 2.4614-7.0561 1.9652-10.095 4.014-4.5915 4.128-6.7313 10.485-7.0205 16.53-0.124 3.0734 0.6588 6.6664 3.7164 8.0911 6.436 3.5906 14.143 2.7811 20.943 5.2892 13.796 4.6071 27.237 10.337 40.094 17.143 2.922 1.2302 5.0822 3.618 7.788 5.1022 3.3187 0.61532 5.7589 3.2865 8.4443 5.1493 11.962 9.6245 23.267 20.211 32.478 32.551 4.3931 6.112 8.7738 12.24 13.072 18.418 2.6966 3.9062 3.7869 8.5967 6.1853 12.668 9.6231 16.836 14.2 36.086 16.279 55.228 1.0017 11.357 1.6169 22.939-0.5432 34.204-1.911 7.8054-4.0362 15.57-5.4031 23.498-0.76996 4.5774-3.0354 8.6963-3.8679 13.263-2.7366 12.334-9.023 23.521-15.564 34.198-8.3617 13.286-18.234 25.706-30.042 36.1-4.7158 4.3931-9.5776 8.6806-15.233 11.842-8.8738 5.3608-17.847 10.622-27.269 14.966-3.642 0.89294-7.3363 1.8597-10.655 3.7317-12.91 6.7932-27.519 9.4346-41.947 10.396-10.706 0.70136-21.496 1.4564-32.216 0.6896zm48.331-379.09c8.1953-5.9362 13.366-14.944 17.44-24.002 1.5574-2.8215 2.8293-5.8185 2.763-9.1063 0.33926-7.8435 0.31186-15.808-1.2511-23.529-1.9103-9.0672-7.2218-16.956-13.479-23.618-4.2618-4.3787-8.2328-9.1635-13.242-12.721-5.3865-3.0755-11.844-3.1101-17.866-3.5987-7.5811-0.32857-15.219-0.46381-22.768 0.38794-5.5488 1.002-10.351 4.2374-15.149 7.0141-9.533 5.9125-16.975 14.927-21.196 25.302-3.4125 7.4764-3.4858 15.895-3.3204 23.959 0.43507 12.459 4.9993 24.954 13.88 33.882 3.0164 2.8403 6.0265 6.3885 10.28 7.2081 3.4087-0.034 3.6141-4.3596 3.7137-6.9181-0.11198-4.5352-0.18169-9.2411-1.7571-13.547-1.4417-3.7256-6.2514-5.5468-6.2622-9.917 0.0282-5.0845 0.46905-10.651 3.5954-14.866 5.1726-5.74 13.089-7.8221 20.42-9.1649 10.541-1.6909 21.845-1.8476 31.676 2.8826 5.6198 2.534 10.984 7.2715 11.509 13.797 0.69451 5.9469-2.404 11.447-6.1365 15.807-3.209 4.1495-2.2408 9.6971-2.4227 14.582 0.14828 2.9726-0.15138 6.1527 1.1493 8.9137 2.5439 2.4209 5.7095-1.1558 8.0312-2.4616l0.3922-0.28282z" fill="#fff"/>
   <path d="m429.16 849.59c-13.05-1.601-26.134-4.0395-38.269-9.2687-12.459-4.817-24.722-10.38-35.722-18.036-13.741-9.1657-26.124-20.325-36.737-32.978-6.2694-6.897-12.668-13.872-16.848-22.297-6.1394-11.363-12.074-22.886-16.838-34.902-1.4477-3.5338-2.0341-7.3959-1.4297-11.176-0.1373-4.1975-3.013-7.6123-3.6641-11.708-2.1656-9.4168-1.6812-19.161-1.7652-28.753 0.0533-15.327 0.63715-30.896 5.2469-45.636 3.717-13.566 10.28-26.095 16.726-38.516 2.9468-5.2405 5.7229-10.677 9.8583-15.1 4.9954-6.2739 9.4573-12.994 15.162-18.678 8.7493-9.1782 19.006-16.748 29.45-23.869 2.9212-1.8176 5.8264-3.7988 9.086-4.908 2.6065-2.4738 5.3453-4.647 8.8663-5.6579 9.4675-4.3068 18.864-9.0042 29.072-11.324 6.0284-1.6154 12.293-2.0464 18.377-3.3128 4.0388-0.78932 4.9385-5.0892 4.2814-8.5643-0.31618-4.4834-1.472-8.9182-3.4798-12.944-0.24006-4.1337-4.6548-5.601-7.8111-7.0964-8.4221-4.438-15.355-11.336-20.943-18.958-3.7768-5.7657-6.848-11.974-9.8405-18.169-2.7781-6.4029-2.7936-13.474-2.7272-20.321 7e-3 -5.9746-0.37044-12.047 0.76957-17.94 3.3871-14.78 9.4819-23.038 16.649-31.31 5.2844-6.1517 11.944-11.015 18.944-15.033 4.3567-2.135 9.1537-3.1744 13.44-5.477 4.8743-1.9213 10.178-2.4255 15.323-3.2292 5.119-0.69328 10.326-0.61092 15.363 0.58611 8.4614 1.7054 16.843 4.0291 24.822 7.3334 6.2715 3.1519 11.201 8.2857 16.74 12.488 7.8692 7.0769 13.275 16.599 16.575 26.568 0.3067 4.0662 2.3998 7.2523 4.0506 10.764 1.1925 6.3498 1.5984 12.871 1.3784 19.329-0.27282 6.2944-2.2442 12.401-4.7608 18.124-2.8371 2.4912-2.4028 6.3686-4.0617 9.4552-3.7737 8.0212-8.5746 15.985-16.116 20.99-5.1508 3.8158-10.56 7.4074-16.572 9.7218-3.9468 0.0798-6.3474 3.8183-7.1739 7.2829-1.3797 3.915-3.4159 8.208-2.056 12.394 2.131 3.9496 7.1978 4.1372 11.124 4.8238 12.257 1.9968 23.817 6.8072 35.211 11.569 7.9246 3.456 15.962 7.0535 22.73 12.511 3.0097 1.7014 6.473 2.5689 9.0595 4.9832 8.6729 6.621 16.878 13.911 24.255 21.956 7.7669 8.5304 14.489 17.926 21.134 27.33 5.6009 8.6821 9.9355 18.113 14.117 27.536 3.8548 9.1394 5.8455 18.893 8.3929 28.442 1.4105 5.677 2.5624 11.435 2.7193 17.299 0.53165 8.9723 1.205 17.99 0.59911 26.972-1.0882 9.8909-4.3207 19.361-6.6153 29.004-2.0691 7.5836-4.5849 15.077-5.8778 22.841-1.8533 5.8251-5.0265 11.121-7.7886 16.546-6.2203 11.391-12.723 22.836-21.746 32.282-8.0296 8.6493-16.718 16.732-26.108 23.887-6.7357 4.7404-13.968 8.7176-20.973 13.033-5.0044 2.9371-10.358 5.3334-16.054 6.5258-8.2696 2.8141-15.83 7.6081-24.498 9.261-5.961 1.2016-11.898 2.6246-17.93 3.4007-13.543 1.4291-27.222 1.2942-40.794 0.39076-1.4438-0.12453-2.8855-0.27618-4.3224-0.46516zm26.746-8.8774c-6.2721-0.83163-12.616-0.20916-18.914-0.22242-4.3066 0.71513 1.805 1.3395 3.2772 1.3326 4.8777 0.14715 9.807 0.0244 14.63-0.73115l0.51253-0.16265zm-30.496-1.3499c-6.8163-1.9819-13.27-5.6796-20.55-5.6416-3.3649-0.61243-6.0749-3.0462-9.6793-3.0537-1.728-0.365-3.3632 0.0815-1.132 1.3937 3.6413 2.5109 8.3206 2.1978 12.377 3.6648 6.3219 1.5088 12.488 4.7777 19.147 3.9486 1.0362-0.0442 0.0491-0.19632-0.16162-0.31173zm66.25-2.9458c-0.94768-3.2196-7.8039 0.48132-3.089 1.2 1.0212 0.0498 3.11 0.35828 3.089-1.2zm-18.077-1.9046c7.5836-2.0662 15.535-2.5269 22.979-5.1678 14.171-4.5004 27.711-10.974 40.289-18.884 15.143-9.7952 28.635-22.204 39.542-36.568 5.9781-8.8011 11.51-17.916 16.349-27.394 1.3375-4.7775 3.6299-9.1717 5.6374-13.675 1.6874-3.9207 1.3586-8.3587 3.5194-12.114 2.0588-4.946 2.0593-10.422 2.9211-15.648 1.4008-8.6554 1.2649-17.454 1.2671-26.197-0.0794-6.4516-0.24917-12.922-1.4753-19.274-1.4363-9.5556-3.4645-19.04-6.3366-28.269-2.4142-7.2075-5.5311-14.216-9.6444-20.613-2.167-3.6547-2.3029-8.3172-5.633-11.276-2.1799-2.3806-2.1171-5.9283-4.3367-8.3237-5.6362-6.805-12.154-12.826-18.358-19.106-6.3972-6.1853-12.765-12.459-19.608-18.136-4.1008-2.3958-7.688-5.5696-12.042-7.5339-18.551-9.7042-38.489-17.124-59.301-19.999-16.457-2.3372-33.369-2.0964-49.589 1.7345-10.707 2.486-21.47 5.0671-31.688 9.1845-2.7506 1.0914-5.293 2.5909-7.7718 4.1699-3.1573 1.403-6.7145 1.8654-9.5069 4.0485-2.3544 1.6065-4.8656 3.04-7.5579 3.9378-8.2444 5.8162-15.29 13.111-22.615 20-7.2598 7.1212-14.703 14.197-20.657 22.48-2.5241 4.1944-4.6546 8.616-7.3861 12.687-5.0868 8.9165-8.6667 18.584-12.357 28.133-6.5166 18.75-7.7045 38.85-7.2641 58.545 0.36948 11.015 3.158 21.743 6.0517 32.317 2.198 7.2179 5.0483 14.231 8.1831 21.089 3.6732 7.6056 7.7501 15.028 12.159 22.228 3.0797 4.077 6.6359 7.7679 9.7292 11.839 11.509 13.794 25.092 25.998 40.542 35.224 9.5422 5.346 19.526 9.9156 29.739 13.821 8.5172 3.1415 17.437 5.0827 26.449 6.0794 5.2731 1.0389 10.592 2.0144 15.992 1.8075 10.31 0.14681 20.66 0.19037 30.924-0.89225l0.43469-0.0988 0.41733-0.15352h-2e-5zm-35.673-8.2925c-5.2734-0.52969-10.525-1.4267-15.569-3.063-4.6398-0.74124-9.4353-0.60854-13.908-2.2466-4.1295-1.2974-8.2418-2.7123-12.447-3.7075-4.7905-2.181-8.6304-6.1723-13.796-7.5786-2.6012-0.85884-5.4358-6.4733-0.69462-5.717 4.1312-0.26685 6.441 6.1242 10.462 4.464 0.38022-2.7186-4.6486-2.2279-6.0102-4.3819-2.5329-1.2299-7.5041-4.2556-8.9566-0.3263-1.8219 2.6464-6.2508-0.74364-8.6637-1.8554-4.7066-2.5636-8.3887-6.5524-12.864-9.4533-4.9912-3.3903-8.4344-8.4069-12.713-12.563-5.7795-5.9654-11.836-11.988-15.314-19.661-1.5038-3.024-3.5802-5.7131-5.8893-8.1432-2.2064-3.7283-3.7886-7.7898-6.0832-11.472-3.4755-6.5547-6.0256-13.575-7.5698-20.826-1.6529-4.9752-3.4247-9.9541-3.9127-15.213-1.9922-13.168-2.388-26.618-0.48151-39.821 1.8153-16.769 5.6449-33.53 13.185-48.703 4.6464-8.5398 9.2362-17.224 15.455-24.753 3.455-1.7139 3.9746-6.0986 6.8408-8.4726 9.5154-10.764 20.504-20.371 33.139-27.31 7.2342-4.0025 14.48-8.0509 22.08-11.322 19.811-8.0439 41.5-10.535 62.75-9.7997 17.557 0.57842 35.34 3.6136 51.152 11.572 16.534 7.9398 32.021 18.242 45.348 30.852 3.003 2.7903-1.4827 4.593-3.8271 2.9732-1.5121-0.70464-4.9668-1.4382-2.2633 0.76113 2.0475 1.8412 4.2412 5.2465 6.8872 5.4039 0.56019-2.6825 2.5732-4.7293 4.9308-2.1247 7.9162 5.4293 11.856 14.51 17.004 22.259 2.6748 4.1071 4.5729 8.6256 6.6088 13.056 2.3988 4.1947 4.9197 8.3845 6.0768 13.13 1.2727 4.2096 3.0271 8.2588 4.6026 12.345 2.536 10.068 2.6708 20.532 3.0678 30.848 0.19029 11.268 0.32164 22.673-1.8596 33.774-1.3832 3.7996-1.9804 7.7714-2.8167 11.703-1.2418 5.4922-3.6517 10.599-6.1098 15.623-1.4712 4.2592-2.0645 8.8857-4.707 12.666-7.5643 13.093-17.247 24.839-27.493 35.908-10.371 10.992-23.26 19.248-36.636 26.098-13.976 7.0266-29.159 11.821-44.773 13.241-2.8204 0.14498-6.433 1.0543-8.797 0.23209 0.54384-1.7962 5.9264-2.3053 4.1922-4.1157-2.5909-0.13552-8.9287-1.8153-8.56 2.094 0.47909 3.8624-4.1836 3.4703-6.7211 4.0506-4.7729 0.5958-9.5928 0.12852-14.345-0.42446zm6.1966-12.389c-1.9931-1.9518-6.7599-0.59356-7.0417-4.1999 5.1136-1.2402 10.433-0.39091 15.64-0.63113 10.162-0.0832 20.174-2.0704 29.983-4.5808 3.9244-0.927 7.8463-1.9216 11.62-3.3585-1.7514-2.1231-6.1118 0.70858-8.7591 0.63356-5.6445 1.2437-11.452 2.4312-17.253 1.6894-3.7141 0.54053-7.0542 2.8734-10.939 2.3792-3.8745 0.19718-7.9533 0.38616-11.572-1.2597-3.4239 0.51604-6.7049 2.6037-10.227 1.1864-4.1287-0.58988-8.2585-1.651-12.46-1.287-6.2688-1.6796-11.94-5.4651-18.551-5.833-2.5184-0.40951-6.1872-3.276-7.8204-2.6004 2.1599 2.2035 5.3363 2.9476 7.9867 4.4092 3.4254 1.5607 6.8765 3.2773 10.654 3.7681 4.918 2.6732 11.005 0.90092 15.925 3.5152 1.814 0.55298 2.653 3.3608-0.0535 2.6632-3.8851 0.46184-8.0282 1.2958-11.538-0.96194-4.5931-1.3937-9.363-2.2064-13.779-4.1579-9.0235-3.3715-17.933-7.1439-26.292-11.958-2.528-2.847-7.5807-3.8289-8.4931-7.8383 1.8138-3.5658 5.6004 0.80263 7.1049 2.6326 4.0252 3.2374 9.0348 5.0283 13.987 6.2506 2.457-1.0514-2.9477-3.5756-4.1922-4.3885-8.1499-4.6996-16.046-9.8604-23.338-15.815-1.3901-1.0528-4.9595-4.0566-5.4107-3.1349 1.8827 3.0989 5.1781 5.1301 6.908 8.3101-0.96511 4.1102-5.6816-0.0846-7.7262-1.2995-1.8546 2.1705 2.678 4.7489 4.1005 6.5258 4.4636 3.7186 9.1549 7.2525 14.52 9.5725 2.7209 1.2309 5.2085 2.8661 7.4579 4.8118 4.8908 2.9937 10.356 4.9014 15.631 7.1006 6.6213 2.604 13.369 4.9502 20.326 6.4844 4.1315-0.23028 7.6767 2.5646 11.798 2.5825 3.8273 0.4763 7.7228 0.94333 11.565 0.35271 0.62321-0.26096 0.55711-1.1012 0.23873-1.5625zm9.49-0.46432c-1.2307-3.4499-7.845 0.97544-2.903 1.7032 1.1761 0.20574 5.1663 0.40946 2.903-1.7032zm10.981 0.70551c1.9562-2.9572-4.9745-2.588-5.4492-0.0311-1.3567 2.456 4.8232 0.50263 5.4492 0.0311zm18.958-2.4906c9.7932-2.5141 19.352-6.0949 28.366-10.628 1.4584-0.5692 3.042-3.5699 0.20603-2.0624-11.828 4.4931-23.42 10.085-36.052 11.947-1.8062-0.19528-5.9446 2.0958-2.375 2.7594 3.3487-0.19433 6.5595-1.429 9.8548-2.0162zm43.122-12.459c-2.1885-2.075-6.3967 4.3729-2.1365 2.1344 0.81666-0.54616 2.003-1.0229 2.1365-2.1344zm-46.408-2.1111c1.7152-3.248 7.0118 1.205 8.0142-3.1764 2.1842-1.38 5.6473-1.8409 7.4198-2.8244 3.3728 1.8808 7.446-0.11892 10.057-2.3819 2.8025-2.6279 0.0284-6.3349-3.3559-5.4108-3.955 0.59984-7.4987-4.1728-11.047-2.1611-2.0215 2.836-3.957 5.7689-6.7397 7.9646-2.9438 2.6539-6.4086 4.8727-8.6751 8.1786-0.9681 2.7937 4.3204 1.7652 4.3271-0.18875zm-57.964-0.63221c2.0473-3.7741-4.1646-5.4854-5.6605-8.3819-10.656-11.271-16.637-27.86-12.519-43.19 3.7925-15.242 15.365-28.504 30.384-33.466 8.5663-3.0456 18.03-3.9819 26.911-1.8398 3.0687 1.3491 6.1052 3.9849 9.6845 3.0422 2.6703-1.9946-2.3627-4.6739-3.2291-6.8475-3.1149-3.7264-6.0068-7.6517-8.9151-11.52-3.2772-2.6102-7.7564-0.7795-11.46-2.1589-4.0184-0.96134-8.0028-2.933-10.472-6.3525-3.9682-2.1829-8.6938-1.3097-13.034-1.6199-15.92-0.10968-31.865-0.62585-47.76 0.55735-4.932 0.1167-9.963 0.67089-14.834-0.31821-2.9053-0.72487-5.6294-2.0567-8.5743-2.6386-2.9537 1.7042-3.5094 5.9122-7.0585 7.0919-3.3544 2.1423-8.2942 1.8338-10.939-1.245-1.6915-2.4973-1.3162-8.9332-5.5613-8.0632-2.3511 2.0113-3.2298 5.3518-0.36395 7.1328 1.443 3.1366 0.25925 6.6528 0.97058 9.9441 0.40557 4.1537 1.293 8.3321 3.1458 12.063-0.24902 3.5358-0.5415 7.1704 2.4929 9.6787 2.8505 4.9461 2.3238 11.07 5.2628 15.996 1.8806 3.1339 2.0936 7.6843 5.6104 9.5308 3.6613 1.5118 1.5977 6.6454 5.7287 8.0991 2.4969 1.6952 5.8747 3.9145 4.4759 7.4177-0.78977 3.4245 3.5687 0.27958 4.3771 3.1566 1.9196 1.9228 4.1986 2.574 5.4564 5.2546 1.7568 1.8229 4.8605 1.1756 4.8729 4.4484 0.85075 2.8564 4.7903 1.4918 5.4772 4.7786 1.1743 3.051 5.3151 1.1666 5.9719 4.6519 2.7069 2.3797 2.0627-3.8107 2.687-5.324 0.19951-3.5868 4.5288-6.0325 3.3666-9.7268-2.0183-2.0253-7.8905-3.5516-5.6923-7.485 2.4151-1.977 5.9565-1.35 8.7697-0.67711 2.5681 1.0814 6.2193 1.5163 7.5971 4.1053-0.78566 2.8834-3.7549 4.6872-4.5356 7.6837-1.2671 3.1554-1.825 6.7375-4.1853 9.3353-3.6322 0.88355-2.3725 8.4678 1.4832 5.8817 3.4952-1.8794 5.9275 1.7582 8.1599 3.8097 2.119 2.8574 5.285 3.0783 8.3077 3.7273 1.7474 1.1517 0.9363 4.0143 3.7677 3.0521 3.4645-1.3179 6.5598 3.013 9.4942 0.63057l0.33838-0.21519zm-65.53-50.91c-3.231-0.6014-7.756-1.7387-6.5155-6.0555-0.19737-4.4951-0.96166-9.4316 1.4225-13.507 2.4965-3.1072 8.5498-2.3344 9.5605 1.7751 1.1017 3.5783 2.4816 7.0903 4.8039 10.072 3.0225 3.5895-1.1579 7.4909-4.6799 8.2836-1.4889 0.3469-3.3906 0.62116-4.5915-0.5685zm108.18 47.274c2.6671-2.412 6.5254-2.1191 9.5587-3.6321 3.7493-2.218 7.242-5.6586 8.0263-10.089 1.6229-3.554 7.2448-3.3213 8.0956-7.4144-0.43616-3.6784 3.6142-6.3829 2.6562-10.125-1.5182-1.9427-7.6217-1.3952-6.1063-5.4328 2.3604-0.65358 7.3953-1.6003 5.279-5.2171-2.3284-4.5407-4.3271-9.5494-8.3862-12.903-3.1568-1.8428 0.13245-6.7583-3.3299-8.8417-2.1328-3.8504-5.8858-6.4223-10.229-6.4274-2.8416-1.9125-5.3969-4.1584-8.5424-5.5441-1.4586-1.2891-1.0375-3.6432-3.5482-2.4545-3.6339-0.7866-8.4676 2.4609-4.7623 5.9854 3.133 2.2783 2.2377 6.6906-1.8351 6.902-3.4274-0.0225-8.4432 2.7481-10.607-1.1364-1.9995-4.6923 3.3477-6.0539 6.7201-6.7029 3.5184-2.5483-3.0665-7.6201-5.1858-3.7102-2.9937 2.1684-8.1496-0.38145-9.8151 4.0271-0.41468 2.3204-1.6851 4.9834-4.4881 3.5644-4.355 0.50109-7.0531 4.537-9.5028 7.7488-3.591 5.2402-6.2648 11.164-7.5928 17.382 0.38594 2.9209 2.9775 5.9333 0.28254 8.509-1.0825 4.3361-0.569 8.9708 0.93042 13.136 1.485 2.4292 7.6677 2.81 4.2034 6.302-0.12194 3.9139 4.1749 5.7204 6.2183 8.5056 1.9201 2.7816 4.6346 1.4871 6.7584 0.12923 3.8431 0.15865 1.7682 4.9103 4.4345 6.5119 2.7457 2.5603 6.7109 3.2411 10.317 3.2571 2.5228-0.39319 5.5142-5.7449 6.2831-0.84416 1.6579 4.1755 6.1978 2.3749 9.2187 1.1238 1.7403-0.68061 3.4103-1.5475 4.9489-2.6096zm-19.693-5.6958c-2.1966-3.8003 2.2443-7.6839 5.9896-7.1397 2.9888-1.5702 7.748-1.7238 6.67 2.9929-0.18979 2.5579 1.1934 6.632-2.8637 5.4877-3.0665-0.13907-7.5139 1.2012-9.7959-1.3409zm-19.84-14.39c-0.90332-3.0176-6.03-4.2556-3.9731-8.1225 1.7288-4.1396 8.3633-2.5494 8.5029 1.8037-0.0401 3.312 4.3026 6.2129 2.2116 9.2663-2.6623 2.422-5.5463-0.56673-6.7414-2.9475zm48.893 1.8392c-3.0867-3.2769 0.83692-7.2365 2.5973-10.091 2.0505-3.7834 8.3769-2.1568 7.6428 2.2738-1.0016 3.66-4.1441 6.25-6.7196 8.8483-1.2871 1.0982-2.8311 0.30402-3.5205-1.031zm-23.666-0.15378c-1.8574-3.85 0.53254-8.8683-2.5356-12.232-2.64-1.8072-5.7645-4.7767-3.9978-8.2637 1.6498-3.7628 6.1869-5.6658 6.8498-9.9774 1.0021-3.5549 0.56831-7.5222 2.5358-10.783 3.9335-0.0791 2.0009 5.7163 2.5523 8.3049 7e-3 4.4549 0.65987 8.8983 1.8099 13.187 0.0979 4.4811-3.4072 7.9461-4.0834 12.269-0.54328 2.1821 0.16937 7.8135-3.1309 7.4956zm-30.807-29.756c-2.9283-3.0116 2.1672-4.3244 3.2447-6.0215 0.24081-2.9005 3.0293-7.3992 5.6859-3.6119 2.2656 3.5194-1.6403 7.3546-1.3739 11.02-2.2919 1.1648-5.4219 0.20308-7.4221-1.2575l-0.13084-0.12551-4e-3 -4e-3zm57.708-0.29184c-1.5469-1.6266 0.93701-6.1638-2.8098-4.9486-2.7848-1.8151 0.9609-3.8965 2.4382-1.6394 2.4185 1.5461 7.299 4.3212 5.0155 7.6532-1.4043 1.3306-3.9699 0.77117-4.6439-1.0652zm33.724 49.453c1.4877-1.0095 6.4287-2.7722 4.7574-4.4692-5.1488 1.1662-9.7013 4.0087-14.362 6.3646-1.9774 0.65567-1.8723 2.4583 0.43675 1.4798 3.1868-0.72224 6.2334-1.9562 9.1682-3.3752zm13.225 0.0712c2.263-2.9865 6.362-3.5624 8.9078-6.2767 4.191-3.2453 8.6341-6.4025 11.923-10.574 3.4872-0.55628 4.3372-3.7566 6.4281-6.1084 5.8862-6.9004 11.694-13.944 16.227-21.83 1.0825-1.5403 3.0922-6.2038-0.60391-4.7526-2.9728 1.1965-2.4896 4.7296-4.2036 6.9568-6.3554 9.638-13.762 18.631-22.167 26.558-7.6682 6.9532-15.998 13.137-24.394 19.176 2.7041 0.84663 6.089-1.1267 7.8818-3.1508zm-0.96853-7.4117c4.4819-2.2748 8.0339-5.9577 11.723-9.2808 1.4609-0.88083 2.3343-4.2448-0.36129-2.5499-5.2115 3.1467-9.4813 7.5677-14.385 11.13-2.7428 2.9962 1.8909 0.39898 3.0229 0.70043zm-1.3064-9.1135c1.9661-2.9748 7.5058-2.6065 7.991-6.4421 0.63951-3.3987 5.1029-2.3249 6.0368-5.5464 1.9765-2.2503 3.1397-4.7334 5.3769-6.413 2.6058-0.74492 4.6103-3.7218 4.2908-6.1881-2.7558-1.1762-5.4999-2.2441-6.7301-5.3764-2.395-1.6665-8.6511-0.20477-7.849-5.0164 2.2642-5.5197 6.8822-9.5412 10.942-13.722 3.7536-2.1252 6.1653 2.8105 6.1076 5.9555 0.43954 3.1221 2.4298 6.3482 5.5726 7.2557 2.8568-0.56762 2.4559-4.9307 4.81-6.6586 2.1966-3.0306 1.0564-7.4457 3.9695-10.136 1.1833-1.038 2.4542-1.2041 0.6428-2.3385-1.7313-2.4998 1.5137-4.0118 3.1354-4.4983 1.4655-3.8595 0.80913-8.174 2.1837-12.104 1.1563-4.0047-1.2768-8.6468 2.4067-11.5-1.9005-4.7688-5.8776 1.7649-8.8013 1.878-4.7986 1.2846-11.048 1.4704-14.358-2.9153-3.658-2.8872 0.28442-9.5974 4.3302-6.1745 1.9444 2.5489 5.8458 7.6069 8.285 2.4788 1.4737-3.8993-3.1716-3.9191-5.2226-5.2843-0.84216-2.3568-0.30563-6.248-4.0088-5.8778-3.2906-1.6638-2.7696-7.257 0.17688-8.9639 3.7376-1.3452 7.923-0.0943 11.428 1.4128 3.7642 1.0845 2.8286 4.7316 0.43283 6.7627-2.9073 4.1414 4.4084 4.1769 5.1525 7.7283 0.0273 2.1672 2.3321 3.1861 2.1253 0.41149-0.6185-3.6501-0.0386-7.2586 0.72735-10.828-0.5643-3.1718-2.4604-6.0909-2.1758-9.5543-0.0778-3.5864-0.62127-7.1383-1.7874-10.529-0.68446-3.3013-0.6502-6.8599-2.4416-9.8318-2.1898-1.9155-1.5988-5.7035-3.5459-7.618-0.43502-3.8012-4.1732-6.2241-4.4489-10.139-0.54315-2.9408-5.1909-7.895-6.5033-2.8249 0.7654 3.5538-5.0535 5.335-2.7397 8.5467 2.2069 1.5064 7.5007-0.23522 6.5376 4.3296-0.85328 3.7403-5.4398 5.2517-8.6763 3.5196-3.2735-1.938-8.1391 0.76362-10.545-2.4944-1.2939-4.1007 1.422-9.5714 6.0658-9.6794 4.0538-0.84326 5.7928-7.3375 1.6058-9.194-4.6007-0.7192-1.3916 5.6643-4.803 6.5187-4.6311 1.0996-6.5708-5.8444-3.2257-8.4 3.5056-2.7632 8.5092-1.7443 12.66-1.5406 1.3903 0.45803 6.0608 2.1317 4.1718-0.91105-4.1087-0.0971-2.4552-5.6172-5.2632-7.4144-1.457-2.7926-5.6938-2.547-7.4234-3.7521 0.71263-2.5924 0.53861-6.3457-3.0895-5.9281-2.3871-1.9822-2.6157-6.6466-6.5334-6.1672-1.6695-2.381-7.1948-0.89882-6.4656-4.3396 0.96341-3.9353-3.9595-3.6365-4.8484-6.8249-2.2947-3.7698-7.1694 0.98338-10.081-2.2622-2.4126-2.0089-1.3766-7.1371-5.8638-6.5718-3.3288-0.23296-7.5172 0.83086-9.7986-2.3736-1.801-3.2008-6.1888-4.6572-9.7063-3.8222-3.0596-1.7607-6.2126-3.5192-9.76-2.4808-3.9688-1.4529-7.8812-2.9849-12.168-3.1868-4.1331-0.73185-7.9275-2.7889-12.132-1.336-4.0277-0.10984-7.0305 3.0652-11.148 1.558-2.5724 0.26973-4.3571 3.2447-7.3185 1.5465-3.2908-1.3123-5.2246 2.9835-8.7352 1.097-4.2373-1.8869-5.3552 4.646-9.2162 4.0164-3.8391-2.1314-7.1293 1.4875-10.262 2.8855-2.9483 1.342-4.6899 4.8682-8.4977 4.0942-4.9034 1.1106-9.0449 4.2767-12.822 7.4413-2.6567 2.8838-4.8189 6.4439-8.6389 7.9608-3.8084 1.7868-6.6766 4.8586-9.2374 8.1032-2.9572 2.4044-6.0381 4.047-7.6873 7.7436-2.2488 2.52-6.0561 4.0544-6.3344 7.9253 0.38103 4.3744-5.9293 4.4827-6.5528 8.4928-2.313 3.1664-0.73058 7.3427-1.8815 10.501-3.0987 1.5529-5.0958 4.1356-4.3138 7.7679 0.82733 4.4745-3.5518 6.9785-4.0011 10.977 0.66306 3.9635-2.1503 6.819-3.1526 10.382-1.3356 4.3995-2.3807 9.2147-1.3233 13.767 1.2604 3.9714 4.3614 0.84232 6.0361-0.93202 2.5196-2.3846 6.0459-4.9724 9.672-3.4379 3.7113 1.4396 6.9575 4.4468 11.186 4.1886 8.2945 0.3748 16.607-0.13576 24.896 0.48445 13.913 0.77438 27.811 1.8762 41.748 2.1588 5.806 0.19393 11.619 0.3424 17.426 0.13666 2.5644-2.4324 2.7189-7.0329 6.8373-7.8951 6.2978-2.6951 14.846 0.40563 17.382 6.9064 1.1435 2.9759 0.56613 6.214-0.32318 9.1628-0.68924 4.1925 2.6255 7.2519 5.0483 10.156 7.4515 9.3214 12.709 20.377 21.343 28.735 3.9543 3.1702 10.045 4.1269 12.155 9.2471 2.14 5.4781 2.1108 11.608 4.9038 16.871 2.3983 5.1851 6.4988 9.5225 8.0258 15.116-0.12417 3.1567-5.7705-3.5885-4.2258 1.0498 2.5804 2.7406 5.6146 6.2618 3.282 10.173-1.7126 2.1577-1.6197 7.4716 2.2848 4.9786 2.7147-1.196 5.0306-3.0979 7.2776-4.9978zm-161.68-143.48c-2.5757-2.5056-4.3246-6.9026-1.634-9.9673 2.2322-3.3521 5.3002-7.1646 9.663-7.302 4.4807 0.38781 7.9436 4.5681 8.7799 8.7807 0.70839 5.6414-4.0486 10.768-9.2787 12.039-3.0968 0.7233-5.693-1.305-7.5302-3.5504zm8.0139-8.1821c1.2136-2.7153-2.1416-4.8724-3.1774-1.4854-2.2428 2.1528 1.2639 8.5802 2.9796 4.1632 0.17137-0.88156 0.18706-1.7829 0.19771-2.6778zm-19.747 1.7156c0.11337-3.0612-0.22437-9.1611 4.5314-8.071 2.8209 2.193 0.80228 6.4395 1.429 9.4799 0.94774 3.4351-0.97245 8.0703-5.083 6.1476-2.1033-1.8881-0.52939-5.1426-0.87736-7.5565zm153.17-26.875c-0.53972-5.3876-0.69323-10.882 0.22244-16.229 1.0123-3.5687 6.3689-3.2275 5.945 0.80841 1.2076 5.7949 1.2355 11.739 1.8292 17.608-2.5846-0.22772-6.0577 0.81687-7.8218-1.6666zm-112.66-2.2897c-1.3854-4.8495-1.1218-10.285 1.102-14.838 2.2434-3.1826 5.2514 0.46762 5.1444 3.1729 0.81411 3.9127 0.61287 8.0823-0.68799 11.862-1.0964 2.1844-4.8051 2.3997-5.5584-0.19654zm15.495-4.8882c-1.6219-4.8006-2.3102-10.645 0.78073-15.016 2.9457-3.3512 6.4159 0.88819 5.24 4.1914 0.0361 4.2344 0.18748 8.6403-1.1589 12.694-1.441 2.4712-4.5061 0.15071-4.8619-1.8692zm50.621-6.1814c-3.757-0.26218-7.6074-5.0026-3.8852-7.9962 1.9194-1.1203 4.7599-5.4909 0.58535-5.1104-4.9905-0.28595-3.5474-7.765 1.1111-7.3484 3.7368-0.89195 9.0857 0.55569 9.14 5.1615-0.0986 3.3955-0.24455 7.0502 3.6813 8.2149 2.5161 2.632-0.57129 7.3312-3.7038 7.9549-2.3058 0.30196-4.6864-0.36465-6.9287-0.87631zm-15.996-1.1015c-2.5703-3.0207-0.99467-7.2682-0.95583-10.823 0.24742-3.061 0.0936-9.3968 4.6683-8.5292 2.9882 1.8196 1.1307 5.7139 1.6508 8.5358 0.0155 3.7234 0.10544 7.5908-1.1994 11.13-0.96311 1.6353-3.114 0.70795-4.1638-0.31418zm65.239 187.65c-1.9294-3.269-8.0972-2.6588-9.5436 0.56444 2.2001 1.4667 5.6706 1.3247 6.5511 4.6086 2.3226 3.079 4.6587-3.6966 2.9925-5.1731zm-160.48-2.26c-1.5393-3.4155-2.4663 2.2322-0.17875 0.94504 0.67973-0.2203 0.2706-0.60736 0.17875-0.94504zm206.61-10c1.4063-2.4863 5.7734-6.4812 4.334-8.5447-3.5558 1.3497-3.7832 6.0517-6.8516 8.1248-2.3367 2.458-5.0973 4.6818-6.505 7.8527 1.4277 3.1334 4.4061-2.1753 5.8537-3.4415 1.097-1.2974 2.1499-2.6318 3.1688-3.9913zm-202.28 6.5625c-2.2624-3.1486-3.2156-7.423-5.0412-10.318-3.3644-2.12-5.8444-5.2775-8.8679-7.7839-3.1823-1.5287 0.0535 2.7777 1.0198 3.5344 1.9668 3.419 3.4694 7.1018 5.8663 10.272 1.3293 1.9216 2.8422 3.7634 4.7593 5.1272 0.76547 0.21396 2.0269 0.092 2.2638-0.8311zm6.9215-2.7913c-3.4038-6.5359-9.9111-10.695-13.593-17.036-2.1888 1.9404 1.3573 5.7512 2.7485 7.6598 3.3946 4.2132 7.1801 8.2225 11.206 11.774 0.34864-0.724-0.26723-1.6543-0.36146-2.3972zm149.37-6.8265c-0.90696-3.1231-3.9083-8.2043-7.4727-7.1865-1.328 3.0329 0.48372 7.834 3.8479 8.8102 1.3684 0.40512 3.4201 0.11004 3.6248-1.6237zm46.552-10.051c2.4162-3.6625-5.7626-4.2589-3.5903-0.33098 0.37226 1.5474 0.8191 6.6997 2.6552 2.9651 0.43818-0.82603 0.75509-1.7165 0.9351-2.6341zm12.153-6.0143c-0.84721-3.5099-5.2169 1.6524-5.7691 3.5651-0.41957 1.4954-0.84186 6.1676 0.0232 5.6144 2.255-2.8084 5.0294-5.5004 5.7459-9.1795zm-237.09 4.1208c0.4518-2.5486-4.5472-2.9711-2.2494-0.18641 0.74583 1.5279 3.8728 4.3337 2.2494 0.18641zm3.2596-6.5625c-2.1476-5.7361-4.2966-11.543-7.6332-16.716-2.6654 0.14194 0.30694 4.7242 0.45351 6.451 2.0901 5.6279 4.456 11.219 7.8861 16.178 1.9782 0.49883-0.25491-3.7514-0.38244-4.9138l-0.17105-0.52522zm10.501 4.1034c-0.0864-1.6307-3.2703-6.2411-3.9758-3.3005 0.55052 1.818 3.0771 6.0657 4.33 4.9914-0.073-0.5723-0.21656-1.1318-0.35416-1.6909zm230.37-18.178c1.6402-1.9601-1.2176-3.9111-1.4791-1.0346 0.0858 3.8314-3.1637 6.8784-2.7757 10.504 1.8319-0.0445 2.4019-4.8851 3.4471-6.772 0.29294-0.89186 0.56255-1.7914 0.80763-2.6976zm5.2603 7.887c1.9681-0.93175 2.0725-7.6164-0.47317-3.8054-1.2487 1.1284-4.8594 6.0265-0.83588 4.8222 0.48133-0.27564 0.91641-0.62652 1.309-1.0168zm-256.49-4.41c-3.5316-1.7338-0.13698 6.0106 0.37364 1.6615 0.0436-0.56754 0.0244-1.208-0.37364-1.6615zm12.102-1.608c0.3694-1.9277-4.0474-5.2304-2.3254-1.4393 0.35011 1.4104 3.4533 6.0741 2.4428 1.9412zm249.38-7.5784c0.66232-4.6802 3.121-8.9311 3.3769-13.7 2.1555-15.768 2.0213-31.836-0.0476-47.604-1.9383-10.959-6.0405-21.372-9.8178-31.792-4.7597-12.24-12.07-23.376-20.997-32.977-2.392-2.8708-5.3619-5.5484-6.8385-8.9904-1.6395-3.2834-6.7864-3.4882-7.3351-7.718 0.15238-2.0746 0.66506-8.0079-2.6535-6.5009-0.21286 2.1179-1.6045 4.3498-3.7159 2.2215-4.3898-2.3704-8.5169-5.2326-12.469-8.2579-1.6024-2.5271 5.218-1.9727 1.4158-3.9986-1.199-1.6509-6.2687-4.625-4.7444-0.53744-2.0365 2.7725-6.3362-1.0835-9.1593-1.4362-6.9161-2.888-14.009-5.295-21.215-7.3447-5.3467-1.5867-10.77-3.0265-16.328-3.6281-1.3173 1.2922 3.438 1.6896 4.4838 2.2114 8.6224 2.4704 17.51 4.2556 25.781 7.7839 11.135 6.5187 23.196 11.734 33.089 20.156 1.7829 3.6212 5.5235 5.3494 8.4919 7.8663 4.7886 5.1569 9.2562 10.611 14.166 15.657 3.8748 4.3947 6.6458 9.6041 9.7224 14.532 2.887 3.3624 2.607 8.1202 5.0012 11.745 2.5173 4.4871 4.9609 9.0826 6.0054 14.17 2.4147 9.2555 4.3065 18.651 5.9432 28.069 0.58541 5.4009 0.80568 10.97-0.65853 16.257-3.2634 2.9908-3.577-4.1301-3.6818-6.3187-0.77306-8.4704-0.66407-17.011-1.8435-25.446-3.1603-1.686-2.4545 4.709-2.0699 6.6346 1.5192 12.631 1.6252 25.445 0.42362 38.107-0.80773 7.2434-2.2542 14.394-3.7198 21.527 2.2832-3.0259 3.163-6.8082 3.6794-10.483-0.31344-2.3504 4.2721-7.2435 4.3748-2.8658 0.31526 4.3698-0.40333 8.8158-1.5396 13.001-1.5047 2.1163 0.88442 5.0361 2.2048 1.7905 0.35726-0.65963 0.57871-1.3892 0.6741-2.1322zm-1.99-23.33c-0.13665-1.7022 0.91744-7.8514 2.9505-4.5094 0.76772 3.0192 1.0466 9.5944-2.4933 10.076-0.87127-1.6917-0.37875-3.7404-0.45714-5.5664zm-251.88 18.033c-3.3836-10.022-3.4764-20.704-4.369-31.124 0.41463-1.7986-1.9674-7.4339-2.329-3.1124-0.44703 6.8248 0.69376 13.637 1.4062 20.408 0.78501 5.1036 1.3459 10.433 3.8531 15.019 0.99945 1.3745 0.97226 6.1777 2.7716 5.3027 0.35177-2.2089-0.82553-4.3891-1.3329-6.4929zm-5.8825-0.60698c-0.81265-5.6005-3.3646-10.805-3.8329-16.481-1.1136-6.9794-2.0202-14.04-1.932-21.114 0.19505-2.9986 4.3128-4.9061 4.646-0.96308 2.8401 1.3373 2.4427-4.7215 2.8403-6.6831 1.0519-10.936 4.2087-21.495 6.5685-32.181 0.33215-1.701 1.0601-4.8799-0.43349-1.7182-2.7107 4.8208-3.8225 10.297-5.0548 15.619-1.4905 3.4617-3.2538 6.9511-2.8323 10.851-0.0607 3.1419-2.4058 5.5929-2.3415 8.5509-2.7848-2.5414-0.23687-7.687-3.1227-10.525-3.3952 1.3933-1.6837 6.3483-2.419 9.2901-0.25747 13.316 0.5592 26.655 2.1731 39.87 0.4635 2.8883 0.90825 6.252 3.247 8.2528 1.6202 0.77542 2.6873-1.4667 2.4938-2.7683zm-12.108-38.079c0.85685-1.3227-0.21349-5.965-1.205-2.3995-0.24282 2.2314-1.2106 5.1382 0.2654 7.0115 0.4712-1.501 0.68205-3.0649 0.93964-4.612zm0.87597-12.233c-1.3683-2.5738-3.7536 3.0686-0.44675 1.0127 0.28315-0.25418 0.45127-0.63175 0.44675-1.0127zm281.25-4.7833c-0.74142-2.024-1.9485-6.8441-3.7187-6.3669-0.58322 2.3153 0.90815 9.0205 3.7187 6.3669zm-271.76-7.1713c-0.24572-5.4994 2.4188-10.584 2.6874-16.028-3.1496 2.1853-2.937 6.7174-4.2572 10.024-0.85458 3.6154-1.4731 7.3151-1.4216 11.041 1.9582-0.49434 3.1133-3.1518 2.9914-5.0364zm251.7-13.597c-1.4828-4.2326-2.0476-8.794-3.9153-12.873-3.5883-6.6015-7.8544-12.821-12.557-18.676-1.9614-5.4987-6.7744-9.1675-10.442-13.496-3.9355-4.1185-7.8058-8.4189-12.365-11.837-6.2823-3.5077-11.62-8.5531-18.235-11.506-3.1208-1.4058-6.2648-2.9064-8.7875-5.268-3.0626-1.2629-6.5218-1.3437-9.343-3.2979-1.3864-1.2666-7.2874-1.8049-3.877 0.6764 3.8308 2.1576 8.1649 3.2775 12.149 5.1421 3.945 1.6899 7.8155 3.5876 11.423 5.9216 2.0617 3.2726 6.2234 4.0498 8.9639 6.5962 11.504 8.3682 22.171 18.319 29.649 30.495 0.80154 3.0372 0.49332 6.5633 3.9282 7.895 4.4623 5.7745 7.712 12.412 10.608 19.091 1.5268 3.5297 2.7606 7.1837 4.0665 10.79 1.9527 1.9582 0.33249-3.0826 0.22668-4.0841-0.42904-1.8741-0.95564-3.724-1.4921-5.5696zm15.061 1.25c0.24384-2.8606-3.2935-1.1413-1.4068 0.75809 0.64083 1.9234 1.6833 0.6179 1.4068-0.75809zm-267.54-7.9656c-1.2788-3.2395-5.7168 6.1612-1.9589 3.6938 1.1186-0.8918 1.8677-2.2606 1.9589-3.6938zm6.2019-2.972c-3.243-3.481-2.8651 8.4535-1.0275 3.1513 0.43694-1.0166 0.77241-2.0752 1.0275-3.1513zm255.73-1.7152c-1.0349-1.0986-1.2233-5.8873-2.5222-4.7248 0.40425 3.176 1.7094 6.4026 3.4929 8.988 1.0596-0.89181-0.84081-3.1172-0.9707-4.2632zm-259.41-2.7336c-0.44053-3.9428-4.2974 5.345-0.74702 2.4195 0.4991-0.70044 0.74229-1.5644 0.74702-2.4195zm9.4295-4.8911c0.91919-1.1977 2.3818-6.7702-0.39225-3.8847-1.7574 2.5616-5.1403 6.0584-3.3746 9.2237 2.0709-0.53201 2.8053-3.6403 3.7669-5.339zm-5.0354-1.5976c2.4282-4.7136-6.6358-2.1864-3.7561 0.97466 1.2613 0.59347 2.9238 0.12218 3.7561-0.97466zm251.88 0.13374c-0.0265-2.0374-5.33-3.0283-2.2579-0.47077 0.49409 0.6532 2.386 2.6939 2.2579 0.47077zm-5.5951-10.04c0.052-3.4776-4.8346-2.1898-2.9845 0.90264 0.72761 3.0954 5.1976 2.7003 2.9845-0.90264zm-220.92-7.3502c1.4011-1.0595 1.4022-3.7904-0.29114-1.4867-0.99305 0.98442-4.8106 4.168-2.7468 4.5102 1.2604-0.71891 2.202-1.863 3.038-3.0234zm-7.8375-1.1815c1.317-0.86389 4.6554-5.8044 0.90895-4.3286-1.8834 1.9071-4.8421 5.3286-4.316 7.5188 1.5096-0.55764 2.2157-2.2134 3.407-3.1902zm-3.1455-6.6363c-1.3683-2.5738-3.7536 3.0686-0.44675 1.0127 0.28315-0.25418 0.45127-0.63175 0.44675-1.0127zm11.988-4.6045c-2.3188-1.8798-4.5448 4.8129-1.3332 2.1532 0.53102-0.59259 1.5966-1.209 1.3332-2.1532zm19.668-7.8217c6.7394-3.5149 12.478-8.754 19.583-11.617 1.7329-0.60301 6.7839-3.6345 2.286-2.8985-3.5995 1.0385-6.9512 2.8568-10.257 4.6005-3.7849 2.2114-7.2898 4.8926-11.223 6.851-2.2398 2.0625-6.4171 5.6191-6.5984 7.5562 2.3954-1.0161 3.7096-3.6462 6.2091-4.4923zm-6.2813-3.4375c2.9813-2.0158 6.7885-2.702 8.8265-5.9426 8.523-6.8669 18.991-10.562 28.299-16.149-4.0757 0.20389-7.8727 1.975-11.667 3.3273-5.0192 2.3632-9.7981 5.2232-14.576 8.0273-5.7706 3.7132-11.321 7.9063-15.87 13.074-1.1842 4.2148 2.797 0.47611 4.9868-2.3365zm168.38-9.6875c-1.0111-2.9511-7.472-1.7573-3.8328 1.217 1.1016 0.78319 6.6311 1.499 3.8328-1.217zm-163.75-1.9488c-1.3683-2.5738-3.7536 3.0686-0.44675 1.0127 0.28315-0.25418 0.45127-0.63175 0.44675-1.0127zm41.25-5.657c2.4736-0.49467 1.5107-2.7025-0.53674-1.4163-2.5766 0.69825-7.3049 2.5822-7.7408 4.2634 2.9779 0.0781 5.6269-1.723 8.2776-2.8471zm76.205-1.0078c-4.2478-2.3124-9.2582-2.5868-13.982-2.6908-0.66375 1.2559 3.993 1.5716 5.3749 2.1787 3.0228 0.40753 7.153 2.541 9.5791 1.5264-0.23744-0.4214-0.69024-0.63257-0.97242-1.0143zm-44.955-3.5356c4.7819-0.0494 9.6283 0.96516 14.359-0.13305 1.4995-2.9011-4.6989-1.8544-6.5454-2.1454-8.4866-0.0993-17.056 0.36044-25.313 2.455 0.58581 1.6643 4.8633 0.20814 6.8225 0.44585 3.5559-0.25268 7.1118-0.53414 10.677-0.62243zm70 0.27416c-0.79932-1.3318-5.0842-1.3209-2.0978 0.24341 0.609 0.79324 4.6658 1.4983 2.0978-0.24341zm-103.12-1.25c-0.31714-3.5942-8.2106 0.81262-3.0665 1.2381 1.1203-0.0197 2.307-0.36941 3.0665-1.2381zm16.875-4.0038c11.436-1.7478 23.049-1.5158 34.556-2.2236 2.8169-1.3231-2.874-2.3327-4.1425-2.3801-8.6754-0.43886-17.367 0.51785-25.968 1.5943-6.0073 0.9855-12.174 1.7937-17.822 4.1583-2.8719 2.6597 3.4674 0.23473 4.9088 0.24359 2.8117-0.52896 5.6361-0.98961 8.4685-1.3925zm30.542-9.874c-1.3855-1.1487-6.599-1.3958-3.0115 0.83227 1.0964 0.93728 6.8188 1.6993 3.0115-0.83227zm-73.84 285.77c-0.67634-2.2816-5.4835-3.14-6.1302-2.3664 1.2977 1.6194 4.8219 5.7291 6.3051 2.9496l-0.17496-0.58319zm143.26-1.8262c2.5504-1.2271-0.19398-2.8192-1.5267-1.0984-2.8496 1.6116-0.75898 3.097 1.1624 1.3205zm-152.74-2.77c-2.1559-3.3602-6.3535-4.3196-9.3482-6.7316-7.6593-4.9465-15.348-9.9311-22.291-15.861-3.4711-0.96099-0.17405 2.6767 1.2516 3.2049 6.133 5.2847 12.791 9.8851 19.532 14.35 3.3351 1.7356 5.659 5.3152 9.1536 6.478 0.85267 0.10952 2.0361-0.36279 1.7022-1.4403zm166.03-5.6964c-2.1837-1.5707-6.3811 4.1122-2.204 1.9763 0.81729-0.52998 1.866-0.98012 2.204-1.9763zm16.649-11.268c-1.5901-2.6454-4.7166 1.9808-6.3183 3.1531-1.4605 1.2373-0.88248 3.1554 0.83126 1.3961 1.9332-1.3886 3.5743-3.135 5.487-4.5492zm14.167-13.315c1.3507-1.6814 4.8629-4.9634 4.1512-6.157-5.0913 3.7407-9.0858 8.7163-13.325 13.343-1.4511 1.7323-0.5522 2.2434 0.8995 0.73647 3.0634-2.3034 5.5964-5.2035 8.2744-7.9223zm-235.31 1.2808c-0.5226-1.3787-5.0826-4.41-2.42-1.4532 0.53443 0.4402 1.7296 2.7945 2.42 1.4532zm-11.503-13.571c-5.0777-6.5911-9.4296-13.734-13.648-20.866-1.3566-2.1243-3.4755-0.59499-1.6407 1.3744 4.0148 6.897 8.7155 13.372 12.676 20.3 2.1762 3.249 4.6692 6.3841 7.9135 8.6276 1.7594-2.1442-2.9567-5.0412-3.7831-7.4033-0.50111-0.6813-1.0073-1.3589-1.5179-2.0331zm259.86-3.7698c5.5224-7.4473 10.301-15.513 13.708-24.142 0.684-4.1654-2.1993 0.74041-2.7565 2.0079-2.412 4.6291-4.5494 9.439-7.715 13.619-1.1564 3.9367-4.0904 6.6434-6.5577 9.745-1.009 1.7938-4.0934 4.5338-3.2485 6.1589 2.5099-1.2634 3.6797-4.3052 5.6823-6.2518 0.29661-0.37854 0.59249-0.75764 0.88796-1.1371zm-279.1-26.37c0.041-2.0345-3.537-2.3676-1.7996-0.10154 0.14497 1.1925 3.5496 4.3139 1.7996 0.10154zm-5.4815-12.588c-2.108-3.4354-1.7022-8.0429-3.8638-11.213-1.863 1.7028-5e-3 5.2011 0.30667 7.477 0.99617 3.9196 2.3625 7.8814 4.9975 11.023 1.7115-1.9289-1.0979-5.205-1.4404-7.2869zm304.14 1.1586c0.81823-1.2262 2.2016-6.7959-0.63798-4.7988-0.53919 3.3731-1.4243 6.8645-1.8227 10.139 1.3272-1.3102 1.748-3.5738 2.4607-5.3404zm5.9097-17.188c2.574-8.916 2.56-18.268 3.3136-27.445-0.75859 0.92784-1.0074 5.1373-1.5616 7.3137-1.4534 7.9507-3.172 15.858-4.2632 23.871 0.49643 4.0956 2.3472-3.0304 2.5112-3.7399zm-316.84-4.35c-1.9173 0.62761 0.36117 4.8087 0.33719 1.2611 0.0234-0.43739-0.0352-0.91677-0.33719-1.2611zm-1.8957-17.656c-1.1878-10.119-1.3977-20.322-1.7894-30.487-0.14256-2.8672-1.7294-1.6828-1.4239 0.48714-0.86236 12.265-0.067 24.583 1.0076 36.807 0.54081 2.3429 0.59665 6.5312 2.7773 7.3577 1.2208-2.9955-0.16882-6.4802-0.0922-9.6704-0.14668-1.4998-0.30922-2.9979-0.47944-4.4952zm321.98-12.99c-1.8619 0.25786 0.35029 5.7475 0.2589 1.482-5e-3 -0.50309-0.0767-1.0105-0.2589-1.482zm0.86004-15.087c-0.79422-8.7902-2.2604-17.545-4.6163-26.052-1.53-1.6752-0.2728 4.4533-0.12939 5.672 1.2651 9.0316 1.784 18.194 3.7043 27.116 1.8534 1.7274 0.93735-3.3085 1.127-4.5536-0.0212-0.72755-0.0524-1.4549-0.0856-2.1819zm-321.15-24.47c-0.49783-2.9984-2.7987 2.3978-2.6172 3.67-0.6305 2.5076-1.1958 8.3891-0.1425 8.8556 1.289-4.0868 1.0835-8.5374 2.7597-12.526zm4.4008-15.647c0.67762-3.001-1.7231-3.2138-2.0033-0.37716-1.4554 3.6365-2.7674 7.3832-3.2027 11.297 3.3701-0.99579 3.5647-5.5637 4.8177-8.3766 0.20935-0.83248 0.36291-1.6833 0.38834-2.543zm305.12-8.6808c0.49593-2.4434-5.0381-4.8172-3.0482-1.1368 0.89005 1.341 2.6102 4.8456 3.9124 3.9001-0.16182-0.95627-0.53846-1.8554-0.8642-2.7632zm-299.52-5.7984 2.1092-4.375c-1.9639 2.7635-5.4798 5.4797-4.9686 9.1851 1.466-0.9456 1.9025-3.3294 2.8594-4.8101zm293.36-7.0938c-2.1066-4.0265-1.5757 4.8892 0.89692 2.4262-0.0784-0.8736-0.47642-1.6729-0.89692-2.4262zm-282.16-13.31c0.42358-1.1393 3.1286-4.9656 1.568-4.6987-2.7968 3.6191-5.1668 7.5728-6.9928 11.768 2.6846 0.19425 3.3526-4.5681 5.057-6.4026 0.1233-0.22175 0.24497-0.44441 0.36766-0.6665zm273.15-3.0094c-1.8819-3.9058-4.6811-7.3802-8.1517-9.9858-2.218 1.0087 2.0784 4.3248 2.6354 5.9845 1.937 2.1398 4.0469 6.3238 6.4352 6.7686-0.0644-0.98769-0.71095-1.8169-0.91886-2.7672zm-258.64-15.71c-3.0224-0.53447-5.699 5.0904-5.5048 5.9755 2.2615-1.5133 4.3249-3.4902 5.5048-5.9755zm246.12-1.4675c-1.6116-3.0952-4.663-4.8998-7.4626-6.7453-1.2258-1.25-4.7842-3.8559-2.0965-0.8763 3.3604 4.1738 7.1656 7.9801 11.013 11.689 2.6586 1.0121-1.401-3.596-1.4538-4.0678zm-239.84-5.0668c2.5659-2.2101-0.45779-3.2501-1.7628-0.86992-1.547 1.1019-1.6178 4.0273 0.67589 1.92 0.39822-0.3101 0.76318-0.66283 1.0869-1.05zm223.62-10.08c-6.6937-6.7438-14.799-11.873-22.869-16.783-1.6542-1.0466-3.8975-0.77366-1.4762 0.81212 3.3458 2.8743 7.5613 4.612 10.526 7.958 2.9185 2.8293 7.3412 3.1152 9.9958 6.3018 1.2741 1.0146 4.0725 4.0128 4.8826 3.1312-0.25706-0.54502-0.75541-0.90691-1.0585-1.4198zm-29.897-20.359c-2.1732-2.6224-5.5904-3.7769-8.6752-4.9071-1.6578 1.55 3.2887 2.6123 4.27 3.8642 0.97042 0.49169 3.9159 2.5683 4.4052 1.0429zm-91.427-19.777c5.0178-0.76748-2.105-6.1551-3.1459-1.7381-2.0474 2.3529-8.7362 0.11803-7.9081 4.4918 2.8839 2.6249 6.2798-1.4205 9.2931-2.0555 0.58278-0.24308 1.1692-0.47761 1.7609-0.69815zm7.2253-5.99c2.49-2.8318 6.7024-1.627 10.012-2.0217 1.7319-0.0534 5.1058 0.23439 1.7386-0.92304-3.4486-1.853-7.3733-2.3949-11.229-1.9887-3.346 0.15748-6.7312 0.51041-9.9003 1.6568-1.0621 3.5433 5.0578 3.8382 7.4011 4.9552 1.0032 0.072 1.8417-0.70349 1.9776-1.6785zm14.741-9.235c-2.2791-2.5383-7.0401-2.4204-9.7215-0.76707 1.1205 2.9219 6.0821 1.7856 8.6413 1.4074l0.56851-0.268zm-13.038-8.9103c-0.73395-2.3262-5.4374-0.22124-7.6404-0.51015-1.3761-0.35819-4.5911 1.6339-1.5263 1.6429 3.0835 0.29812 6.2753 0.0338 9.1667-1.1327zm19.062 0.44241c-1.2849-1.149-5.1026 0.88731-1.5625 0.63049 0.28618-0.0439 2.7093 0.0798 1.5625-0.63049zm1.9798-5.9608c4.6802 0.32064 3.3287-5.0872 2.5846-7.8459-0.38114-6.0882 0.73421-12.139 0.9183-18.218 0.24475-3.2472 0.46253-6.5954-0.49568-9.7558-3.0024-2.6361-7.3432-1.6175-10.99-2.2454-9.1616-0.41501-18.397-0.5954-27.497 0.73799-3.7248 1.4835-2.9772 6.3889-3.4812 9.6605-0.19453 4.326 0.72957 8.6236 2.2506 12.647 1.1892 5.4219-1.0847 10.742-1.8523 16.01 2.9911 0.39611 6.2681-0.0172 9.3722 0.10702 9.7328-0.0609 19.512 0.0669 29.19-1.0982zm-43.109-8.7872c-0.79331-3.8471-4.5404-5.9302-7.2147-8.4191-4.0218-2.9733-8.6768-5.5199-11.119-10.098-5.1741-7.8882-10.283-16.249-11.49-25.793-1.3358-8.8729-2.062-18.06 0.27618-26.838 1.0098-3.678 1.6664-7.6185 4.2142-10.593 1.8413-3.0761 3.4103-6.3192 5.8276-9.013 4.5014-5.432 9.6719-10.409 15.583-14.279 8.8578-5.004 18.927-8.0013 29.098-8.5049 8.1828-0.41555 16.375 1.3288 23.804 4.7383 7.362 2.84 14.912 6.1729 20.156 12.304 9.3458 9.8417 16.54 22.467 17.616 36.195 0.58339 9.4993-0.35706 19.282-3.9146 28.165-3.9544 8.4962-10.089 15.782-16.636 22.398-2.5987 2.5951-5.7983 4.4717-9.2207 5.7496-2.2564 1.3498-6.8711 3.1934-7.413 4.6567 3.1678 1.5887 6.8989 2.014 10.109 0.27687 3.2349-1.8183 8.0186-0.52255 9.6886-4.5353 1.9876-3.4581 5.3505-5.7716 7.6889-8.9737 4.6252-5.7121 8.6019-11.97 11.85-18.556 0.9909-3.3069 1.3665-6.7765 2.7161-9.9833 1.5195-4.2594 1.7899-8.8362 1.104-13.286-0.81451-7.835-1.6642-15.808-4.4042-23.239-2.5146-6.0597-5.0156-12.383-9.8489-17.016-5.651-6.4222-11.713-12.758-19.461-16.642-15.98-8.5669-35.484-10.453-52.768-4.9405-8.0946 2.976-15.417 7.7694-22.138 13.108-9.2456 7.7606-15.489 18.592-18.842 30.099-2.0946 6.6962-4.0857 13.716-2.9987 20.791 1.0644 8.7493 3.976 17.155 7.1087 25.348 3.7637 8.8989 10.176 16.468 17.786 22.339 3.0773 2.5527 6.2296 5.2628 10.08 6.5448 1.2827 0.2121 2.4668-0.79988 2.7641-2.0041zm63.704-16.811c12.359-11.441 18.687-29.242 15.579-45.883-1.3857-9.7943-5.613-19.196-12.366-26.467-4.1713-4.7539-8.5605-9.3983-13.56-13.284-4.8685-2.8916-10.74-2.7828-16.17-3.6828-10.149-1.0223-20.92-1.2859-30.399 3.0321-9.5008 5.1283-18.989 11.552-24.265 21.271-3.2567 5.9406-5.9423 12.315-7.1738 18.999-1.5618 10.539 1.6584 21.018 5.1542 30.84 3.1245 6.9299 8.5009 12.553 14.012 17.656 1.98 2.2058 4.6068 1.3501 4.39-1.7297 0.24564-4.2061 0.46838-8.5457-0.5299-12.67-1.0909-3.3457-5.036-4.6055-6.0923-8.0496-2.1779-5.1568-1.9213-11.222 0.0512-16.397 2.0073-5.2409 6.833-8.6554 11.933-10.53 7.873-3.0492 16.37-3.9269 24.71-4.7317 9.6903-0.36864 19.606 2.3944 27.502 8.0602 3.1758 2.411 6.1637 5.8151 6.1054 10.027 0.19765 3.8802 0.34534 7.8944-0.63311 11.675-1.8312 4.5047-6.9428 7.0445-7.7146 12.102-1.034 4.8718 0.0743 9.8785 0.96675 14.665 2.4222 2.5431 4.95-2.4916 7.1813-3.6782 0.44256-0.40469 0.88163-0.81319 1.3182-1.2244zm-49.967-24.874c0.0696-2.0961-1.2717-8.5985-3.8856-5.0594-0.84552 3.6612 1.3036 7.1489 2.6535 10.414 0.8457 2.1927 2.3639 1.2551 1.6286-0.83132-0.0734-1.5123-0.22196-3.0198-0.39647-4.5234zm10.83 4.8948c-0.32209-1.756-5.5572-2.9034-2.603-4.5165 3.8249 2.63 2.8788-6.7783 0.36629-3.3716-1.3455 2.0711-6.9828-0.5004-5.0186 3.862 0.37794 2.6608 5.299 7.4468 7.2553 4.0261zm7.5-10.208c1.257-2.9528-3.564-5.0954-3.5251-1.1435-1.274 3.1545 3.0438 8.1376 3.4325 2.6202 0.0597-0.48994 0.0857-0.98343 0.0926-1.4767zm15-8.8293c-1.7008-2.7209-7.0278-0.46541-4.0466 2.473 1.3004 2.2054 3.7387-1.1748 4.0466-2.473zm-9.1722-1.4094c-1.8619 0.25786 0.35037 5.7475 0.25883 1.482-5e-3 -0.50308-0.077-1.0104-0.25883-1.482z"/>
  </g>
 </g>
</svg>
