<?xml version="1.0" encoding="UTF-8"?>
<svg enable-background="new 0 0 206.925 307.274" viewBox="0 0 206.925 307.274" xmlns="http://www.w3.org/2000/svg" fill="#cdb684">
 <path d="m154.965,83.344c-.155,1.135-1.11,1.471-2.581,1.291 .425-.866 1.379-1.202 2.581-1.291z" fill-rule="evenodd"/>
 <path d="m166.582,96.251c-.119-.549.252-.609.646-.646v-1.291c1.689.281 8.744,2.761 10.971,2.581 1.336,3.488-3.518.785-3.872,2.582 1.131,1.021 3.438.864 5.162,1.291-6.991,3.496-8.55-2.226-12.907-4.517zm9.679,1.291c-.392-.372-3.061-1.51-3.227,0 .392.371 3.062,1.51 3.227,0z" fill-rule="evenodd"/>
 <path d="m152.384,100.123c2.644,1.479-2.059.86-1.937,1.936-2.643-1.479 2.059-.861 1.937-1.936z" fill-rule="evenodd"/>
 <path d="m184 105.29c-1.437 1.365-3.537-0.751-5.808-1.291-2.159-0.513-5.999 0.631-6.454-1.936 2.938 2.226 10.935-0.609 12.262 3.227z" fill-rule="evenodd"/>
 <path d="m162.709,112.384c3.644,1.358 7.277,4.079 10.971,5.808 2.537,1.188 7.441.746 7.099,4.517-7.457-3.299-13.555-7.957-22.587-9.68 .081-1.425 2.737-.274 3.872-.645-.607-1.759-3.255-1.477-5.162-1.936 8.229-1.297 17.994,5.178 25.812,8.389-6.839.597-11.72-6.344-20.005-6.453z" fill-rule="evenodd"/>
 <path d="m119.47 131.74c10.864-1.815 22.117 6.164 30.331 9.68 2.801 1.199 6.039 1.163 7.743 3.872-13.772-3.436-22.649-11.768-38.074-13.552z" fill-rule="evenodd"/>
 <path d="m98.821,156.912c9.123,7.226 17.238,15.459 23.232,25.813 .75.104 1.148-.143 1.291-.646-.517,2.137.567,3.221 2.581,2.581v2.582c-.832.889-2.803.639-4.518.646-.838-1.118 1.288-1.192 1.291-1.291 .039-1.202-4.229-8.663-7.099-11.616-.639-.658-2.032-.611-2.581-1.291-.927-1.146-1.27-3.069-1.937-3.872-4.501-5.425-10.296-8.273-12.26-12.906z" fill-rule="evenodd"/>
 <path d="m96.24 160.14c2.675-0.739 2.514 1.357 4.517 1.291 7.688 8.66 14.047 18.65 20.006 29.04-5.462-2.01-6.44-9.059-9.681-14.197-2.768-4.389-7.068-7.454-9.034-12.262-1.711-1.515-4.762-1.691-5.808-3.872z" fill-rule="evenodd"/>
 <path d="m117.54 193.05c-3.997 0.32-2.365-3.224-3.227-5.162-2.966-6.679-7.907-12.04-12.261-17.424-2.816-2.777-6.87-4.316-8.39-8.39 10.654 7.631 19.349 17.22 23.878 30.976z" fill-rule="evenodd"/>
 <path d="m86.56 173.69c7.105 4.51 12.167 11.064 15.488 19.36-3.156-2.57-4.067-6.475-6.454-9.68-2.66-3.574-7.072-5.441-9.034-9.68z" fill-rule="evenodd"/>
 <path d="m44.613 215.64c1.755-1.081 4.437 2.425 5.163 4.518-2.114-1.114-3.048-3.406-5.163-4.518z" fill-rule="evenodd"/>
 <path d="m31.707,216.283c2.87.537 1.834,3.984 4.518,3.227-.518,2.238.961,2.48.646,4.517-3.071-1.066-2.634.047-2.582,3.228-2.482-2.035-1.544-7.49-4.517-9.035-.199-1.49 1.863-.718 1.935-1.937z" fill-rule="evenodd"/>
 <path d="m15.573,227.898c.649-1.623 2.854.515 2.582,1.937-1.316-.19-1.266-1.746-2.582-1.937z" fill-rule="evenodd"/>
 <path d="m36.224,231.126c1.252-.256.943,2.938-.646,1.936v-1.291c.549.119.61-.251.646-.645z" fill-rule="evenodd"/>
 <path d="m96.24,234.353c.104-.757 1.176-.545 1.936-.646-.097,1.603.333,2.678 1.291,3.227-1.623,2.199-2.031-2.221-3.227-2.581z" fill-rule="evenodd"/>
 <path d="m41.387,234.353c.627.018.501.789.646,1.29 .75.105 1.148-.143 1.291-.646 .957.549 1.388,1.625 1.291,3.228-1.287-1.214-1.018-2.344-3.227-1.291-.001-.861-.001-1.721-.001-2.581z" fill-rule="evenodd"/>
 <path d="m29.771,243.387c1.979.634-.742,1.722-.646,2.581-1.978-.633.742-1.722.646-2.581z" fill-rule="evenodd"/>
 <path d="m109.792,229.189c2.772,1.756.072,4.486 0,7.099-10.912,7.803-19.05,18.38-30.977,25.168-.459,4.704-4.713,5.612-6.453,9.035h-2.582c-.972.964-.979,2.893-3.227,2.581 .391,5.939-3.565,11.495-6.453,16.133-1.275-.446-1.721-1.721-1.936-3.227-2.935.938-4.572,3.173-5.163,6.454-4.361-.08.029-5.223-4.518-4.518 2.429-3.379 3.501-8.115 6.454-10.971-2.764-1.665-3.023,4.703-7.744,3.227-1.697,3.311 2.12,6.834-.646,9.68-3.382-.517-1.761-3.953-2.581-5.808-2.534,1.769-2.387,6.218-5.163,7.744-1.987.451-1.24.451-3.227,0-6.052,4.703-12.295,9.216-19.36,12.906-.501-.574-.694-1.457-.646-2.581-2.554.457-.993,5.03-3.872,5.162-1.181-1.83.048-6.071-2.582-6.453-2.514.65-.1,2.222-.646,4.518-7.462-.32-2.306-15.285 2.582-12.906-1.605,1.405-3.641,2.382-3.227,5.808 2.462-.334 3.291-2.302 3.227-5.163 1.183-.752 2.185-1.687 3.227-2.581h3.227c14.897-7.259 19.86-24.453 30.976-35.493 .258-2.782-2.9-10.478 1.291-10.971-.267-2.475-3.772.853-4.517-1.936-1.676,1.766-2.619,4.264-6.453,3.871-3.817,4.357-10.416,5.934-11.616,12.907-2.324.472-3.26,2.333-6.453,1.936-1.168-3.134-2.339-6.265-3.872-9.034 4.602-1.289 3.84-5.621 4.517-9.68-2.337-.45-2.496,2.676-4.517.645-2.039.973-1.979,4.045-1.936,7.099-4.39-2.923-11.016-3.611-14.843-7.099-.317-2.897.327-4.835.646-7.099 4.69-2.193 6.382-7.384 9.035-11.616 4.816.3 5.909-3.125 9.68-3.871 .243-4.416-1.377-6.865 1.291-9.035 2.501,1.586 4.397,3.776 7.099,5.163 1.397-1.615.722-5.302 3.227-5.809 2.998.014 3.194,2.829 5.163,3.872 14.682-5.754 20.883-19.987 32.912-28.395 1.92-.23 3.274-1.027 4.517-1.936 8.182-7.454 12.912-17.209 20.005-25.813 1.472-1.786 2.837-3.166 4.518-5.163 2.062-2.452 4.418-7.148 7.099-10.325 .596-.706 2.038-1.206 2.581-1.936 .508-.683.1-1.923.646-2.581 9.023-10.887 19.751-20.373 29.686-30.331 9.325-18.996 23.939-44.93 18.069-73.568-.84-4.098-2.935-7.293-4.518-11.616-3.82-3.912-8.228-7.41-14.197-6.454-2.964.475-7.166,3.463-8.39,5.808-1.744,3.342-.021,8.086-2.581,11.616-2.417,3.332-6.409,3.383-10.325,4.518 1.608-3.86-3.43-5.227-4.518-8.389 1.481-4.476.128-9.039 1.937-12.907 2.168-4.642 7.742-5.472 9.68-10.325 3.215-.423 4.709-2.313 7.099-1.936 1.688-1.109 2.313-3.28 3.872-4.518 4.974-.732 8.422,2.918 12.261,4.518 .92.383 2.277-.313 3.228,0 1.378.454 7.644,3.935 9.034,5.163 1.365,1.206 7.41,9.083 8.39,11.616 1.192,3.085.941,8.434 1.936,12.261 .23.886 1.163,1.68 1.291,2.582 .951,6.692-1.336,19.587-3.227,29.686-2.359,12.595-6.843,24.811-10.971,32.912 1.586.904 2.863-1.56 3.872-2.581 1.985-2.011 3.141-4.329 5.162-7.099 1.698-2.326 4.679-3.869 6.453-6.454 1.925-5.819 2.46-13.028 4.518-18.714 5.949-4.162 8.458-11.763 16.134-14.197 2.64-3.598 7.072-5.404 12.261-6.454 .019.627.79.501 1.291.646 3.319,6.954-2.448,13.167-7.744,15.488-1.917,2.601-4.063,4.971-7.099,6.454-1.194,6.334-4.808,10.25-6.453,16.133 3.349.538 4.259-4.038 7.099-4.518 2.854-.482 4.02.817 7.099,1.936 3.947,10.07-5.994,14.258-14.197,16.133 1.274,4.374 5.184,6.931 5.808,11.616 .323,2.421.495,7.053 0,9.68-.805,4.279-4.021,7.26-5.162,10.971-6.567,3.543-10.971,9.25-15.488,14.843-8.825,3.221-12.123,11.969-19.36,16.779-1.365,4.012-2.955,7.8-5.808,10.325-3.746,15.829-14.621,24.529-24.522,34.203-3.683,6.858-5.424,15.657-9.681,21.941 .518,2.206-.961,3.685-.645.646 .918-3.6 2.368-6.666 3.872-9.68 .934-2.44-1.773-1.239-1.291-3.228 4.737-3.222 2.73-13.188 7.744-16.133 .082,1.157-.79,1.361-.646,2.581 9.887-4.096 13.347-14.618 19.36-22.586 .767-11.064 9.638-14.024 11.615-23.877 1.723-.429 2.363-1.939 3.227-3.227-4.722-.019-4.816,5.916-7.743,5.808 .345,2.496-1.152,3.15-.646,5.808-1.345-4.52-1.932-.893-3.872.646-.496-2.432.787-3.084.646-5.163-7.425-4.191-13.662-9.571-22.587-12.261 3.678,4.547 10.077,6.863 14.843,10.971 2.377,2.048 4.419,4.56 5.808,7.099-7.128-3.413-10.535-10.545-18.069-13.552-1.104,3.283 4.218,4.034 6.453,5.808 1.513,1.201 2.597,3.289 3.872,4.517 1.356,1.306 4.74,1.743 3.227,3.872-3.132-.955-4.359-3.814-6.453-5.808-1.603-.097-2.678.333-3.227,1.291 1.132,4.461 7.021,4.166 7.744,9.035-2.719-.293-2.745-3.278-5.163-3.872-.929.361-1.574,1.006-1.936,1.936 2.021,1.636 4.119,3.195 5.163,5.808-2.979.397-3.714-1.449-6.454-1.291-1.183,1.646 4.034,2.395 3.227,5.808-2.315.534-3.121-1.455-4.517,0 .065,1.655 2.404,1.037 3.227,1.936-.009,1.282-1.761.821-1.291,2.582-5.424-5.274-8.438-11.961-14.197-16.779-3.603-3.015-7.812-7.34-12.907-9.68-6.846,4.77-10.486,12.746-14.842,20.005 4.281,3.462 8.361,7.127 12.261,10.971 2.296,9.319 8.031,15.201 10.97,23.877-8.841-10.303-10.103-28.186-24.522-32.912 2.855,3.383 6.485,5.992 9.68,9.035 1.023,6.721 6.125,9.362 7.744,15.488-1.736.179-1.588-4.797-3.227-2.582-3.247-8.583-7.674-15.988-14.842-20.65-3.616,3.914-7.2,7.858-12.262,10.325 .858,2.154 2.703,3.321 4.518,4.518 1.609-1.237-2.216-2.474-1.936-4.518 4.899,5.211 8.236,11.985 12.261,18.069-.57,1.582-1.934,2.368-1.291,5.163 2.168.662 1.004-2.007 1.291-3.227 .93-.345 1.575,2.515 1.936.646 2.02,5.078 6.321,7.876 8.389,12.906 1.098.237 1.218-.503 1.291-1.291 2.653,1.219 3.609,4.136 5.163,6.454-2.315,2.377.809,2.309.646,5.808-4.106-5.574-8.042-11.317-12.262-16.778 .284,6.174 6.948,11.548 9.68,17.424-6.438-5.179-10.136-13.097-12.907-21.941-1.431-.355-.919,1.232-1.936,1.291-.305,2.773 1.737.825 1.936,1.936-1.439,5.081 3.007,8.162 3.872,12.906 1.494,2.326 5.744,4.789 4.517,7.744-3.41-3.26-5.059-7.884-7.099-12.261-.55-1.181-1.064-2.864-2.581-3.227-.079,6.106 6.363,11.271 8.389,17.424-2.175-.837-2.128-3.896-4.517-4.518-1.882,1.104 1.462,2.349.645,4.518-2.031-1.353-2.21-4.238-3.227-6.453-.921-2.009-2.441-3.848-3.227-5.809-1.009-2.518-.189-7.031-3.872-7.744 .286-.574.567-1.154 1.291-1.29-5.767-7.57-8.725-17.949-17.424-22.587-.188,5.423 7.29,8.575 8.389,14.843 3.37,3.299 5.245,8.092 7.099,12.906-2.756-3.267-4.068-7.978-7.099-10.971-1.363,2.251 2.522,4.772 1.936,8.39-3.729-7.887-7.307-15.925-14.197-20.65-1.713.222-2.178,1.693-2.582,3.227 1.677.386 2.322-.26 1.937-1.937 8.631,8.363 14.256,19.731 17.424,33.558-3.662-3.651-3.921-10.706-6.454-15.488-1.362,2.037 1.932,4.93 1.936,7.744-2.4.249-1.194-3.107-3.227-3.227 .761-8.074-5.574-9.054-7.099-14.843-1.674-1.122-4.687-.906-5.163-3.227 7.192.552 7.568,7.92 12.261,10.971-1.726-5.157-5.093-8.674-8.389-12.262-1.916,1.3-4.676-.168-5.808.646-1.219.072-.448,2.134-1.936,1.937 3.18,7.36 10.411,10.67 11.616,20.005-2.451-.677-4.689-.564-4.518,3.227-2.497.562-2.296-1.576-3.872-1.936 .275,1.23 1.844,1.168 1.291,3.227-2.772-1.684-4.668-1.701-7.099-4.518-1.881,1.104 1.462,2.349.646,4.518-1.022.054-2.461-.311-2.581.646-2.083.577-.907-2.105-1.936-2.582-1.997,1.23-2.417,4.037-5.163,4.518-2.979-2.127-.128-5.266-.646-8.39-.877-5.294-4.471-9.434-9.68-10.97-2.29,3.286-.637,7.686-2.581,10.325 2.409,2.323 4.937,4.527 7.099,7.099-1.798,2.374-1.531-2.721-3.872-1.937-2.163,1.371 1.04,4.751-.646,5.809-1.021-1.131-.864-3.438-1.291-5.163-.83,2.182-.843,5.18-2.582,6.453-1.319-.831-.681-3.621-2.581-3.872-1.96.796.7,2.22 0,3.872-1.35,1.407-1.842-.322-3.872,0-.028,1.104.479,1.672 1.291,1.937-2.267,1.604-8.387-.644-8.389,3.227 1.708.396 6.746-1.412 10.971-.646 2.681,2.697 3.371,7.385 3.227,12.906 4.084-2.584 7.008-6.328 11.616-8.389-.071-1.605-1.209-1.998 0-3.227 1.274,4.055 6.188.813 6.453-1.937 8.156,1.398 14.794-3.912 22.586-3.227 1.124-1.478-.382-2.439-.645-5.162 1.642.725 3.147,1.585 4.517,2.581 1.235-5.752-8.279-9.111-6.453-15.488-2.665-5.51-7.782-8.566-11.616-12.906 10.157,3.286 11.758,15.914 18.069,23.877 3.229,4.074 6.646,7.268 10.971,10.325-1.075,1.282.059.82 0,2.582 .972-.964.979-2.893 3.227-2.582-.632,2.38-2.826,3.197-3.872,5.163 2.294-.933 3.839-2.614 5.163-4.518-3.114-5.706-6.087-11.552-8.39-18.069 3.752,5.713 5.63,13.3 10.326,18.069-3.658,2.366-6.325,5.722-8.39,9.68-1.979-.634.742-1.722.646-2.581-2.652,2.419-12.651,3.679-9.68,9.035 2.807-.851 4.756-2.559 5.808-5.163 5.268,3.507 8.848-11.05 15.488-10.971-3.433,2.16-6.603,4.583-7.744,9.035-5.171,1.928-7.395,6.802-12.907,8.389-2.827.471.52-1.282-1.291-1.29-3.282,4.485-6.629,6.174-9.68,11.615 .304,6.697-7.826,10.13-9.68,16.779 .373,2.128 2.437.925 3.872.646 1.949-1.278 3.095-3.358 2.582-7.099 5.094-6.663 6.735-13.344 14.843-17.425 1.341.563-.954,2.857-2.582,2.582-3.807,6.088-10.233,9.557-11.616,18.069 .555.521.383,1.768 1.291,1.936 4.657-.229 2.624-5.431 3.872-8.39 2.188-5.188 8.742-7.984 10.97-12.906 11.079-5.271 18.451-14.246 27.75-21.296 1.024-2.418 1.566-5.317 3.227-7.099 2.717,3.417 4.528.435 3.87-4.52zm2.582-92.927c-1.706,2.812-4.521,4.514-5.809,7.744 5.657-.057 8.9,5.719 13.553,4.518-3.157-2.651-7.787-3.829-10.325-7.099 3.706.81 5.515,3.52 9.034,4.517 1.331-1.138.564-1.998 1.291-2.581 1.816.549 2.647,2.084 5.162,1.936-.135-2.977-6.851-4.929-6.453-2.582-1.383-1.844-5.203-1.25-7.099-2.581 6.221-.628 10.419.767 14.843,1.936v1.936c3.309-.354 4.33,2.414 6.453,0-6.719-2.747-13.337-5.593-20.65-7.744zm18.069,2.581c-3.649-1.475-7.043-3.998-11.616-3.872-.425-.866-1.379-1.202-2.581-1.291-.143-.503-.541-.75-1.291-.646-.274,1.231-1.844,1.168-1.29,3.227 9.521.458 15.282,7.833 24.522,6.453-1.432-2.653-5.064-2.789-7.744-3.871zm21.296,11.616c6.622-3.059 11.749-7.611 18.069-10.971 5.37-9.042 16.015-12.811 18.069-25.168-3.824-1.135-10.405-5.63-13.552-3.227 2.286,2.241 9.748,2.714 9.034,5.808-3.097-2.281-7.838-2.917-10.325-5.808-4.63-.963-10.462-.724-13.552-3.227 3.523.362 8.937,2.232 11.616,1.291-2.897-1.19-7.589-.586-9.681-2.582 9.223,1.318 18.595,2.487 25.813,5.808 2.225-5.013-1.188-8.834-2.581-12.261-2.118-.893-3.624-2.399-4.518-4.518-3.435-1.728-8.554-1.771-12.261-3.227-.098,1.193-2.186.396-2.582,1.291-.021,6.044 5.393,6.654 6.453,11.616 4.906.902 10.546,1.071 14.198,3.227-4.215,1.69-10.132-3.354-17.425-2.582 .059-1.017 1.646-.505 1.291-1.936-6.801-1.354-14.649,1.648-18.069,5.808-2.203-1.173-3.101.087-5.808,0-.879-1.918-3.334-2.259-4.518-3.872 2.414.272 1.984-1.933.646-2.581-1.289,3.013-3.103,5.502-4.518,8.389 1.619.211 4.339,1.11 7.099,1.291 2.002.131 7.057-.306 3.227-.645-1.269-1.098-3.991-.742-5.163-1.936 5.899-.883 9.163,3.35 14.198,1.291 .145,1.22-.728,1.424-.646,2.582 7.598,3.802 17.53,5.271 21.296,12.907-1.591-.085-3.109-.098-3.872.645-.798,2.088 2.088.493 1.291,2.582-4.979.557-8.228-4.101-12.262-5.808-1.388-.587-3.157-.032-4.518-.646-1.037-.467-1.973-2.17-3.227-2.581-1.989-.651-4.468-.076-6.453-.646-3.064-.879-5.272-3.944-9.68-3.227-.838-1.515.328-1.444-1.291-2.582-5.688-.322-8.486,2.737-10.971,7.099 14.621,2.159 28.009,8.989 39.365,12.261-1.922-1.305-2.764-3.689-4.518-5.163-3.186-.042-5.366-1.087-7.099-2.582-2.871.505-3.873-.859-6.453-.646-3.533-4.426-13.785-2.133-16.133-7.744 2.395.401 6.642-1.049 7.099,1.291-.966.11-2.382-.23-2.582.646 4.166,1.427 9.632,1.554 12.262,4.517 9.584-.661 13.896,7.043 21.941,5.808-.003,1.723 2.039,1.402 1.936,3.227-2.826.432-5.557-2.58-7.099-1.291 .97.966 2.718,1.154 3.227,2.581-2.406.062-.043,2.519-1.29,2.582-6.089-1.875-12.027-7.328-18.715-6.454 5.33,1.984 10.896,3.731 14.843,7.099-2.737,1.882-5.773.034-8.39,1.291 1.487,2.169 7.119.194 7.099,3.872-14.075-4.424-25.622-11.377-40.656-14.843 11.923.029 22.591,6.576 32.912,10.325-2.173-3.202 2.277-.911 3.227-2.581-10.15-3.187-17.337-9.336-30.976-9.035-.01-1.066-1.79-.361-1.936-1.291 5.85-.257 10.902.284 14.842,1.936 .01-3.788-4.145-1.959-6.453-2.581-3.017-.813-5.891-2.468-8.389-2.582-.576,4.566-6.835,5.075-8.39,10.325 13.71,1.563 21.53,9.016 34.202,11.616-.135,1.285 2.736,2.756 1.291,3.227-2.527-.503-7.019-2.42-9.035-1.291 3.079,1.233 5.692,2.922 9.041,3.876zm-8.39-2.582c-5.334,1.083-6.628-4.026-10.325-2.581 1.133,4.253 9.769,4.419 9.68,7.744-4.557-1.682-7.627-4.849-12.906-5.808 .638,3.234 3.929,3.815 7.099,4.517 .522,2.92 3.588,3.296 5.808,4.518 1.877-1.996 3.836-3.909 7.1-4.518-.824-2.62-4.374-2.512-6.456-3.872zm21.296-50.981c-3.057.6-4.468,2.846-6.453,4.518 1.785-.081 2.216-1.232 1.291.646 3.613.574 2.407-.658 3.227-1.936 1.23.275 1.168,1.844 3.227,1.291 .839-2.845-.036-2.645-1.292-4.519zm-43.882,56.79c-3.54-.474.102-1.766 0-1.936 .057.096-2.446-2.102-3.228-2.582-1.701-1.045-5.482-2.279-7.099-1.291 .144,2.438 3.318,1.845 3.872,3.872 1.436-.28 3.5-1.483 3.872.646-1.11.254-1.654-.958-1.936,0 1.089.469 2.965,3.42 4.519,1.291zm1.29-.646c-.276,1.229-1.39,1.622-1.29,3.227 1.772,1.992 3.557.192 6.453,1.291-.202-3.025-3.064-3.39-5.163-4.518zm-45.173,43.237c.395,2.402 1.223,4.37 3.227,5.163-.801-1.996-1.592-4.002-3.227-5.163zm3.872,7.099c.075,1.646.122,3.32 1.936,3.227 .966-.957.06-3.335-1.936-3.227zm19.36,23.878c-.526-1.657-2.664-5.038-3.872-3.872 2.028.554 1.434,3.728 3.872,3.872zm-16.133-3.872c.236,1.914 1.118,3.184 2.581,3.872-.236-1.915-1.119-3.184-2.581-3.872zm4.517,7.744c-.403-1.533-.868-3.005-2.582-3.228 .365,1.573.553,3.321 2.582,3.228zm-9.68-20.006c.142-2.536-1.931-6.206-3.227-5.162 1.887.91.683,4.91 3.227,5.162zm-10.325-14.843c2.757,2.5 4.234,7 7.099,7.099-2.201-5.112-5.951-8.676-10.971-10.971-.345,2.669 2.259,2.41 3.872,3.872zm-7.744,0c.584,2.171 2.952,3.924 4.518,5.809 1.525,1.836 2.493,4.997 4.517,4.517-2.657-3.797-3.859-9.048-9.035-10.326zm9.034,11.617c-.035,1.11.497,1.654 1.291,1.936-.061-1.015.087-2.238-1.291-1.936zm-12.261,8.389c1.737,1.507 2.888,6.983 5.163,5.808-1.568-1.677-3.114-6.758-5.163-5.808zm83.894-207.152c1.702.196 1.664-1.347 1.936-2.581-2.084-.578-.907,2.104-1.936,2.581zm-10.971,6.453c.537-3.333-1.121-4.472-2.581-5.808 .263,2.534.25,5.343 2.581,5.808zm4.517-3.227c2.373,1.378 2.911-3.286.645-2.581 .049,1.124-.144,2.007-.645,2.581zm5.808.646c.176-.879-.399-2.519-.646-1.291-.175.879.4,2.519.646,1.291zm9.035,5.163c4.301,0 6.378-2.226 7.743-5.163-.762-.093-1.463-1.149-1.936,0 .969,2.067-5.59,2.136-5.807,5.163zm-2.582-1.937c1.982.63 3.517-2.424 2.582-2.581-.584,1.137-2.376,1.066-2.582,2.581zm7.099,7.745c3.109-1.193 6.354-2.251 8.39-4.518-2.181-2.412-6.539,2.474-8.39,4.518zm-1.936-3.872c1.014-.062 2.237.086 1.936-1.291h-1.29c.002.647-.524.768-.646,1.291zm4.518,9.034c2.659-.352 3.899-2.123 5.162-3.872-2.4.611-4.996,1.027-5.162,3.872zm5.162-6.453c-3.15.291-5.55,1.333-6.453,3.872 2.597-.846 5.401-1.483 6.453-3.872zm-1.936,8.389c2.529-.052 4.024-1.138 5.808-1.936-.11-.966.23-2.382-.646-2.582-.424,2.802-5.218,1.235-5.162,4.518zm0,4.517c-2.255-.427 4.152-2.495 4.517-4.517-3.085-.074-4.304,1.719-6.453,2.581 .01,1.711-.357,3.8 1.291,3.872-.345-.929 2.515-1.574.645-1.936zm0,3.227c2.03-.551 3.965-1.197 4.517-3.227-2.305.277-3.541,1.621-4.517,3.227zm-.645,5.808c1.965.244 1.096-2.346 2.581-2.581-1.642.079-2.502.939-2.581,2.581zm1.935,1.291c2.915-.528 5.008-1.876 6.454-3.872-2.583.858-5.215,1.668-6.454,3.872zm1.937,5.808c1.547-.01 4.55-1.834 3.227-2.581-.512,1.423-3.034.838-3.227,2.581zm23.231,12.906c1.518-.645 4.329-1.935 2.582-3.872 4.065.18 4.903-6.265 8.389-4.518-1.829,1.628-6.28,4.023-5.162,6.453 1.13-3.046 10.422-6.987 5.808-7.744 2.567-.66 4.951-1.502 5.163-4.518-2.723-1.507-6.678,2.36-7.744,3.227-4.037,3.282-9.929,5.077-10.971,10.326-1.521.199-1.201,2.241-3.227,1.936-.216,1.505-.662,2.78-1.937,3.227-1.229.277-1.621,1.39-3.227,1.291 .008,3.356-3.265,8.584 1.291,9.035-4.008-.781-4.429,2.025-5.163,4.518 2.23.257 4.471-2.794 5.809-1.291-1.234.272-2.778.234-2.582,1.936 4.073-.66 7.91-1.555 8.39-5.808-2.683-.288-4.706,3.43-7.099,1.291 2.676.39 4.017-.951 1.936-1.936 1.712-.01 3.801.358 3.872-1.291-1.963-1.615-4.401,1.258-5.162-1.291 3.657,0 7.784.471 8.39-2.581-1.338-.384-4.24.797-4.518-.646 3.169.158 5.839-.184 5.808-3.227-1.603-.839-2.678,1.893-3.227,0 3.023-.862 6.619-4.549 6.453-6.454-.887.67-3.216,3.169-3.872,1.937zm-25.812-9.679c2.168.017 3.413-.889 4.517-1.936-2.168-.018-3.414.888-4.517,1.936zm22.586,5.162c2.207-1.464 7.013-3.724 5.809-6.454-2.224,1.864-4.522,3.654-5.809,6.454zm-23.877-1.291c2.048-2.039 6.26-1.914 7.744-4.517-3.337.335-8.592,2.145-7.744,4.517zm0,2.582c1.757-1.469 4.969-1.485 5.808-3.872-2.224.595-6.932,2.073-5.808,3.872zm-1.937,2.581c3.012-1.088 10.021-1.58 8.39-5.163-1.602,2.917-6.565,2.47-8.39,5.163zm-1.29,5.163c2.158.232 7.525-1.359 9.034-3.872-3.562-.957-5.146,3.425-7.099,1.936 1.798-2.075 5.65-2.094 7.099-4.518-3.848,1.314-8.933,1.392-9.034,6.454zm21.296-.646c2.023-1.418 2.689-4.194 4.518-5.808-2.91.122-5.367,4.073-4.518,5.808zm-21.296,3.873c2.872-1 6.276-1.467 7.744-3.872-3.678.193-6.349,1.394-7.744,3.872zm-1.291,3.226c2.252-2.266 8.859-.175 9.035-4.517-3.732.785-7.327,1.708-9.035,4.517zm-.645.646c-.041,1.975-2.369,3.362-.646,5.163 3.285-1.447 7.966-1.5 9.681-4.518-3.277-.458-6.32,2.685-8.39,1.291 2.793-1.08 6.027-1.717 8.39-3.227-3.363-1.859-5.865,2.956-9.035,1.291zm28.394,8.389c1.077,1.074 4.712-.41 4.518,1.936-5.487-.545-10.571,3.751-15.488,5.808 3.561-.336 5.939,1.744 8.39.646 .028.888-.304,1.417-.646,1.936 2.541.175 4.484-.248 5.163-1.936-1.547-1.465-4.969-1.055-6.453-2.582 6.612-.097 17.724,3.944 18.715-5.808-4.646,1.204-1.602-5.283-5.163-5.163-1.968,2.765-4.558,4.907-9.036,5.163zm-30.33-2.581c-1.03,2.196-1.758,4.695-2.581,7.099 3.994-.308 8.24-.363 10.325-2.582-1.584-1.266-7.808.985-8.39.646 1.199-3.104 8.176-.428 9.035-3.872-1.543-.393-4.683.81-5.163-.646 1.722-1.074 5.767.173 5.808-2.581-2.89.766-5.019,2.294-9.034,1.936zm14.198,9.034c2.048.309 4.747-4.274 7.099-5.808-4.196.107-4.688,3.917-7.099,5.808zm8.389-3.227c.84-1.74 4.763-.4 5.162-2.581-1.679.503-6.591,1.11-5.162,2.581zm-3.227,1.936c1.472.181 2.427-.155 2.582-1.291-.959-1.015-2.884-.718-2.582,1.291zm-23.232,2.582c3.396-1.122 8.275-.759 10.325-3.227-3.176,1.341-9.42-.385-10.325,3.227zm-5.163,9.035c2.602.708 4.978-2.102 5.809.646-2.196-.044-4.503-.201-5.163,1.291 3.079.237 4.679-1.39 6.453.646-2.039-.104-3.895-.023-4.517,1.291 1.148.313-.28.688-.646,1.291 2.866,1.896 7.152-1.429 5.808-3.872 3.111-.115 4.243-2.21 4.518-5.163-4.046,1.329-10.343.41-12.262,3.87zm12.907-4.518c.099-2.052 1.463-2.839 1.29-5.163-4.076.656-8.82.644-10.971,3.227 1.839,1.521 6.375-2.417 8.39-.645-3.056,1.461-8.171.863-9.68,3.872 2.409.679 7.119-1.323 10.971-1.291zm3.872.646c1.329.566 2.897-1.673 1.29-1.936-.154.92-1.062,1.088-1.29,1.936zm-12.907,21.295c3.606-.379 4.975,1.479 8.39,1.291 .78,1.607 5.128,4.242 5.808,1.936-2.523-.301-3.169-2.75-5.808-3.872-2.372-1.009-6.531.47-7.744-2.582 10.65,1.826 17.388,7.566 26.459,10.971 .079-3.407-4.907-5.41-8.39-7.099-3.464-1.68-8.451-4.431-12.262-5.163-.874-.168-2.389.717-3.227.645-4.754-.409-10.111-2.542-14.843-1.291 4.615.981 8.844,2.346 11.617,5.164zm24.523,8.39c-1.858-1.599-5.883-4.421-8.389-3.227 2.618.839 5.511,4.793 8.389,3.227zm-28.395.645c-1.471.886-2.426-1.664-2.581,0 .397.189 2.484,1.606 2.581,0zm4.518,1.936c-1.002-.147-3.011-2.481-3.872-.645 1.648-.499 2.966,2.525 3.872.645zm-21.942,35.494c.336-.955.955-1.626 1.291-2.582-1.543-.393-4.683.81-5.163-.646 1.603.097 2.679-.333 3.227-1.291-2.649-.562-4.906-5.476-7.744-1.936 2.341,2.607 4.181,5.715 8.389,6.455zm-7.098-8.39c-1.024-2.632-4.345-2.968-7.099-3.872 .035-.825.827-.894.646-1.936-1.517-1.925-6.059-.825-6.453-3.872 .888-.028 1.417.304 1.936.645-1.417-5.487-7.169.662-7.099,4.518 10.046,3.506 16.138,10.966 22.587,18.069h3.872c-4.048-4.342-7.438-9.341-13.552-11.616-1.323-4.916-6.717-5.76-9.681-9.035 6.057.985 7.978,9.015 14.843,7.099zm7.744-9.68h1.936c.117-1.408-.527-2.053-1.936-1.936v1.936zm-23.878,7.099c-.764-.189-2.438-2.6-3.227-.646 .764.19 2.439,2.6 3.227.646zm16.779,16.778c1.513,2.145 2.372,4.942 6.453,4.518-6.424-7.558-11.933-16.031-21.941-20.005 4.26,6.065 10.773,9.877 15.488,15.487zm-50.981,22.587c6.941,2.523 7.764,11.166 12.261,16.133-1.981-9.204-5.683-16.688-13.552-20.005-1.428,1.418 1.132,2.144 1.291,3.872zm-10.971,20.651c-2.499-2.233-3.407-6.058-7.099-7.099-.008,1.282-1.761.821-1.291,2.581 2.2.725 3.073,2.79 3.227.646 2.093.513 3.814,4.757 5.163,3.872zm24.523-.646c1.101-1.041.591-3.326-.646-3.872-1.062,1.003-.275,3.012.646,3.872zm-30.976-.644c-1.581-.184-3.313-3.513-5.163-1.291 1.534.23 3.711,3.114 5.163,1.291zm-3.227.644c-.72-.434-3.208.959-2.582-1.29-1.753.397-3.022,1.279-3.872,2.581 1.904,1.323 3.585,2.868 4.518,5.163-2.735-1.086-4.379-6.152-7.744-4.518 .396,2.186 2.864,2.299 3.872,3.872 1.729,1.497 1.511,4.942 4.517,5.162-.199-4.004 1.24.527 3.872-.646 .839-1.602-1.894-2.678 0-3.227 .502,1.435 1.355,2.517 1.291,4.518 2.205.484.82-2.622 3.227-1.936-.073,2.866 1.263,1.169 3.227,2.581-1.484-4.108-2.098-9.088-6.454-10.325-.667,2.641 3.486,3.778 1.291,5.808-.891-3.09-2.609-6.201-5.163-7.743zm12.262,9.035c-1.446-1.799-2.618-7.254-5.163-5.808 1.889,1.355 2.603,7.268 5.163,5.808zm23.231-6.453c.176-.879-.4-2.52-.646-1.291-.175.879.401,2.519.646,1.291zm-63.888,7.099c2.333.464 2.078,3.515 5.163,3.227 .375-2.096-.439-3.002-.645-4.518 2.036-.759 1.835-3.773 3.872-1.291 .528-4.165-3.152-1.642-4.518-.645-1.108-.828-.013-3.859-1.936-3.872v3.227c3.879,1.239-1.819,2.491-1.936,3.872zm64.534-4.518c1.797,1.034 1.784-2.787.645-2.581-.203.872-.918,1.233-.645,2.581zm-61.307,10.325c-1.327-4.931-5.108-6.971-9.68-3.872-1.217,4.229 3.173,2.851 2.581,6.453-.757,1.596-2.681-1.565-2.581,1.291 2.884,2.69 4.437-.969 7.099-.646-.108-2.498-2.71-5.861-1.936-7.099 1.841,1.17 2.081,3.942 2.582,6.453 1.515-.205 2.422-1.02 4.517-.645 .485-2.985-2.465-.895-2.582-1.935zm-12.906-.645h1.291v-1.29h-1.291v1.29zm17.423.645c.176-.879-.4-2.519-.646-1.291-.175.879.401,2.52.646,1.291zm-17.423,3.227c1.882.949 1.882-2.885 0-1.936v1.936zm-1.936,2.581h1.291c.394-.036.764-.096.646-.645-.853-.008-.59-1.132-1.291-1.291-.037.826-.829.894-.646,1.936zm14.842-1.29c-2.174-1.96-1.957,2.386 0,0zm-5.808,3.872h1.936c.083-1.159-.641-1.511-1.936-1.291v1.291zm55.499,12.261c3.911-1.896 7.304-4.312 9.035-8.389-3.903,1.905-5.909,5.707-9.035,8.389zm7.098-10.325c-1.926-.655-4.128-1.034-5.808-1.936-.065,2.001.789,3.083 1.291,4.518-1.521.947-1.2,1.361-3.227.645-.503,4.444-3.073,6.822-6.453,8.39 1.066-5.172 4.386-8.09 5.808-12.906-2.164-1.386-5.486,1.638-7.099-.646-1.685,1.327.455,6.478-1.291,7.744-.65-2.147 1.427-7.021-1.291-7.099-2.619,6.038 4.214,11.014 1.291,17.424 7.236-3.736 12.756-9.187 16.779-16.134zm-23.232,12.261c-.817-3.952-.373-9.456-4.518-10.325-.871,2.844 2.82,4.443.646,6.453-.089-1.202-.424-2.157-1.291-2.581-1.151,2.299.9,3.903.645,7.099h-1.936c-.268,4.793-.875,7.325-1.291,9.68-1.065-.01-.361-1.79-1.291-1.937-1.55.817.356,5.089-1.291,5.809-1.931-1.198.82-4.624-.646-5.163-1.651,2.006-.616,6.698-1.936,9.035-1.391-.545.242-4.114-1.291-4.518-.39,2.646-1.689,7.015-.646,9.035-2.62-.695-2.17,2.166-3.227,4.517-1.827.106.536-3.978-1.291-3.872-1.878,1.432-.254,2.622-.646,5.809-.825-.036-.894-.827-1.936-.646-.871,2.169.348,3.414-.646,4.518-1.711.205.604-3.615-1.936-2.582-1.134,2.081-.694,3.814-1.291,5.163-1.219-.071-.448-2.134-1.936-1.936-.864,1.717-.205,4.957-1.936,5.808-.101-.76.111-1.832-.645-1.937-.648.858-.61,2.401-1.936,2.582-.101-.76.111-1.832-.646-1.937-.833,1.748-2.868,2.295-2.581,5.163 .787.073 1.528.192 1.291,1.29 2.124-.026 3.213-1.089 5.808-.645 5.691-5.279 12.994-8.948 17.424-15.488 .266-3.391 1.173-6.141 3.872-7.099 .357-1.149.332-2.68 1.291-3.227 12.58-2.314 12.933-19.043 9.035-30.977-2.35.779-1.372,2.433-4.517,1.291 .448,2.348.03,5.562 1.936,6.453 .427-1.725.271-4.032 1.291-5.162 .705,2.662 1.127,5.999-.646,7.744-.149,3.019 3.304,7.602 0,9.68 .762-2.381-.794-4.718-1.286-7.097zm-50.981-8.389c2.034,1.372 6.789,2.214 6.454-1.936-3.162,1.92-2.52-2.794-6.454-1.937v3.873zm9.035,3.226v-2.581c-2.485-.509-2.485,3.09 0,2.581zm6.453,7.744c-.31,2.03.919,2.522 1.291,3.872 2.001.064 3.083-.789 4.517-1.291-.574-2.942-3.29-5.049-5.808-2.581zm45.174,3.872c1.331.567 2.444-2.127 1.291-1.936-.059,1.018-1.647.506-1.291,1.936zm-5.163,6.454c.601-2.201 4.767-3.943 1.936-5.808-.71,1.474-3.19,4.511-1.936,5.808zm-.645,3.226c1.496.562 1.483-3.283.645-1.29-.36.573-1.942,2.825-.645,1.29zm-20.006,5.809c-.384-1.337.797-4.239-.646-4.518-.342,1.408-1.561,4.174.646,4.518zm14.197.645c2-1.043 8.034-3.362 5.163-5.163-1.823,1.618-3.834,3.05-5.163,5.163zm-1.936,0c.729-1.638 3.176-1.557 3.227-3.872-1.85.123-3.856,3.408-3.227,3.872zm-3.872,3.227c-.096-.86 2.624-1.948.646-2.582-.358.406-2.622,1.95-.646,2.582zm-35.493,15.487c-.187,2.983 1.345,4.248 3.227,5.163 1.495-1.085 4.677-6.646 2.582-7.099-1.493,1.089-4.951.213-5.809,1.936z" fill-rule="evenodd"/>
 <path d="m89.787,166.592c1.926-.596 4.477.972 5.808,1.936 6.629,4.801 11.914,13.591 16.133,20.65 1.81,1.848 2.666,4.648 4.518,6.453-3.961.782-4.316-4.594-5.809-7.099-1.608-2.7-3.933-5.885-5.808-8.389-3.071-4.103-6.386-8.482-10.971-10.325 3.694,4.053 9.92,11.158 14.197,16.779-.149,5.312 3.525,6.8 4.518,10.971-5.962-2.541-4.643-15.424-11.616-14.843 2.782-1.917-5.283-9.835-7.744-10.971-.551-2.113-4.709-3.047-3.226-5.162z" fill-rule="evenodd"/>
 <path d="m88.496 172.4c1.793-1.331 3.866 2.562 5.808 3.227-1.723 1.26-3.473-2.956-5.808-3.227z" fill-rule="evenodd"/>
 <path d="m94.304 177.56c1.496-2.073 2.008 2.244 3.872 1.936 2.741 5.164 6.657 11.113 9.68 17.424 1.182 2.466 4.153 4.561 1.291 7.099-3.498-2.311-5.862-5.754-7.099-10.325 2.665 2.067 2.507 6.958 6.453 7.744-3.982-8.711-7.677-17.707-14.197-23.878z" fill-rule="evenodd"/>
 <path d="m94.949,205.312c1.158-1.833-.644-6.218-2.581-7.099-.59-9.09-7.964-11.396-11.616-17.424 9.549,4.863 13.392,15.434 17.424,25.813 3.471-1.994 1.608,4.693 4.517,5.163 1.268-2.154-.468-6.826-3.227-7.099 .501-.574.694-1.457.646-2.581 3.516,3.367 5.127,8.64 7.098,13.552-3.336,1.158-.06,5.791 0,7.744-1.042.182-1.11-.61-1.936-.646 .136,1.88 2.531,3.2 1.29,4.518-2.387-.625-1.983-4.04-3.872-5.163-2.195,1.221 1.105,2.263.646,3.872-4.728-6.889-8.576-14.656-13.552-21.296-1.1,1.28 4.685,7.556 2.582,7.744-2.585-6.02-6.589-10.62-9.68-16.134 1.542,1.47 3.302,2.722 4.518,4.518-.49-5.179-7.304-5.619-10.326-10.325 3.08-1.688-1.473-2.562-1.291-5.163 3.931,2.953 6.771,6.996 10.325,10.325 1.674-5.555-5.66-7.67-7.099-12.261 5.376,5.165 10.882,10.199 13.552,18.069-1.075-.861-1.002-2.87-1.936-3.872-.656.419-.667,1.483-1.936,1.29 1.09,6.224 6.136,8.492 7.744,14.198 3.089-1.629-7.45-14.406-1.29-7.743zm5.163,9.68c.095-1.601.12-3.132-1.291-3.227-1.579,1.295-1.26,3.001 1.291,3.227zm-12.261-13.552c-.035,1.11.497,1.654 1.291,1.936 .034-1.11-.497-1.654-1.291-1.936z" fill-rule="evenodd"/>
 <path d="m93.659,214.992c3.107,1.617.763,3.961 0,0z" fill-rule="evenodd"/>
 <path d="m73.653,219.51c3.079,5.526 5.54,11.669 9.68,16.133-2.083.926-2.357-2.037-3.227-3.227-2.381-3.259-6.186-7.852-6.453-12.906z" fill-rule="evenodd"/>
 <path d="m76.235 258.23c2.572-2.829-3.276 3.604 0 0z" fill-rule="evenodd"/>
 <path d="m69.136 260.16c1.314 1.567-2.591 3.405-3.227 5.163-1.672-1.925 2.811-3.184 3.227-5.163z" fill-rule="evenodd"/>
</svg>
